G75*
G70*
%OFA0B0*%
%FSLAX24Y24*%
%IPPOS*%
%LPD*%
%AMOC8*
5,1,8,0,0,1.08239X$1,22.5*
%
%ADD10C,0.0600*%
%ADD11OC8,0.0480*%
%ADD12C,0.0531*%
%ADD13R,0.0197X0.1181*%
%ADD14OC8,0.0630*%
%ADD15C,0.0531*%
%ADD16OC8,0.0700*%
%ADD17R,0.0630X0.0710*%
%ADD18OC8,0.0850*%
%ADD19C,0.0540*%
%ADD20C,0.0600*%
%ADD21C,0.0160*%
%ADD22C,0.0240*%
%ADD23R,0.0436X0.0436*%
%ADD24OC8,0.0436*%
%ADD25OC8,0.0660*%
%ADD26R,0.0700X0.0700*%
D10*
X011345Y006735D03*
X011345Y008515D03*
X013345Y009485D03*
X013905Y008515D03*
X013905Y006735D03*
X013345Y005765D03*
X013345Y003985D03*
X015345Y006735D03*
X015905Y005765D03*
X015905Y003985D03*
X017905Y006735D03*
X017905Y008515D03*
X015905Y009485D03*
X015345Y008515D03*
X015905Y011265D03*
X013345Y011265D03*
X002640Y021095D03*
X000860Y021095D03*
X000860Y023655D03*
X002640Y023655D03*
D11*
X005750Y013250D03*
X006500Y012750D03*
X005750Y012250D03*
D12*
X009375Y010000D03*
X010375Y010000D03*
X010375Y007000D03*
X009375Y007000D03*
X009875Y018125D03*
X011375Y018125D03*
X013125Y018125D03*
X013125Y021125D03*
X011375Y021125D03*
X009875Y021125D03*
X008125Y021125D03*
X008125Y018125D03*
D13*
X008040Y015234D03*
X007647Y015234D03*
X007253Y015234D03*
X006859Y015234D03*
X006466Y015234D03*
X006072Y015234D03*
X005678Y015234D03*
X008434Y015234D03*
X008828Y015234D03*
X009221Y015234D03*
X009615Y015234D03*
X010009Y015234D03*
X010403Y015234D03*
X010796Y015234D03*
X011190Y015234D03*
X011584Y015234D03*
X011977Y015234D03*
X012371Y015234D03*
X012765Y015234D03*
X013158Y015234D03*
X013552Y015234D03*
D14*
X013875Y013250D03*
X013875Y012250D03*
X012875Y012250D03*
X012875Y013250D03*
X011875Y013250D03*
X011875Y012250D03*
X010875Y012250D03*
X010875Y013250D03*
X009875Y013250D03*
X009875Y012250D03*
X008875Y012250D03*
X008875Y013250D03*
X007875Y013250D03*
X007875Y012250D03*
X002125Y012375D03*
X002125Y013375D03*
X002125Y014375D03*
X002125Y011375D03*
X002125Y010375D03*
X002125Y009375D03*
X002125Y007375D03*
X002125Y006375D03*
X002125Y005375D03*
X002125Y004375D03*
X002125Y003375D03*
X002125Y002375D03*
X014875Y012250D03*
X014875Y013250D03*
X019125Y013375D03*
X019125Y012375D03*
X019125Y011375D03*
X019125Y010375D03*
X019125Y009375D03*
X019125Y008375D03*
X019125Y007375D03*
X019125Y006375D03*
X019125Y005375D03*
X019125Y004375D03*
X019125Y003375D03*
X019125Y002375D03*
X019125Y014375D03*
X019125Y016375D03*
X019125Y017375D03*
X019125Y018375D03*
D15*
X001391Y002375D02*
X000859Y002375D01*
X000859Y003375D02*
X001391Y003375D01*
X001391Y004375D02*
X000859Y004375D01*
X000859Y005375D02*
X001391Y005375D01*
X001391Y006375D02*
X000859Y006375D01*
X000859Y007375D02*
X001391Y007375D01*
X001391Y009375D02*
X000859Y009375D01*
X000859Y010375D02*
X001391Y010375D01*
X001391Y011375D02*
X000859Y011375D01*
X000859Y012375D02*
X001391Y012375D01*
X001391Y013375D02*
X000859Y013375D01*
X000859Y014375D02*
X001391Y014375D01*
X019859Y014125D02*
X020391Y014125D01*
X020391Y013125D02*
X019859Y013125D01*
X019859Y012125D02*
X020391Y012125D01*
X020391Y011125D02*
X019859Y011125D01*
X019859Y009375D02*
X020391Y009375D01*
X020391Y008375D02*
X019859Y008375D01*
X019859Y007375D02*
X020391Y007375D01*
X020391Y006375D02*
X019859Y006375D01*
X019859Y005375D02*
X020391Y005375D01*
X020391Y004375D02*
X019859Y004375D01*
X019859Y003375D02*
X020391Y003375D01*
X020391Y002375D02*
X019859Y002375D01*
X019859Y015125D02*
X020391Y015125D01*
X020391Y016125D02*
X019859Y016125D01*
X019859Y017125D02*
X020391Y017125D01*
X020391Y018125D02*
X019859Y018125D01*
D16*
X008180Y009559D03*
X008180Y008102D03*
X008180Y007000D03*
X004125Y007000D03*
X004125Y008102D03*
X004125Y009559D03*
D17*
X004190Y016750D03*
X005310Y016750D03*
X008315Y016750D03*
X009435Y016750D03*
X012440Y016750D03*
X013560Y016750D03*
X015815Y016750D03*
X016935Y016750D03*
D18*
X011905Y002625D03*
X009345Y002625D03*
D19*
X007895Y002375D02*
X007355Y002375D01*
X007355Y001375D02*
X007895Y001375D01*
X010125Y005355D02*
X010125Y005895D01*
X011125Y005895D02*
X011125Y005355D01*
X013355Y002375D02*
X013895Y002375D01*
X013895Y001375D02*
X013355Y001375D01*
X002270Y017875D02*
X001730Y017875D01*
X001730Y018875D02*
X002270Y018875D01*
D20*
X015125Y002675D02*
X015125Y002075D01*
X016125Y002075D02*
X016125Y002675D01*
X017125Y002675D02*
X017125Y002075D01*
X018125Y002075D02*
X018125Y002675D01*
D21*
X009875Y012250D02*
X010375Y012750D01*
X010375Y013500D01*
X011190Y014315D01*
X011190Y015234D01*
X010796Y015234D02*
X010796Y014421D01*
X009875Y013500D01*
X009875Y013250D01*
X009355Y013528D02*
X009355Y012778D01*
X009000Y012375D01*
X008875Y012250D01*
X008375Y012750D02*
X008375Y013500D01*
X009221Y014346D01*
X009221Y015234D01*
X008828Y015234D02*
X008828Y014328D01*
X007875Y013375D01*
X007875Y013250D01*
X007875Y013750D02*
X008434Y014309D01*
X008434Y015234D01*
X008040Y015234D02*
X008040Y014665D01*
X007825Y014250D01*
X007875Y013750D02*
X003875Y013750D01*
X003500Y013375D01*
X002125Y013375D01*
X005310Y016685D02*
X005310Y016750D01*
X006250Y016125D02*
X006466Y015909D01*
X006466Y015234D01*
X006859Y015234D02*
X006859Y015856D01*
X006841Y016125D01*
X007253Y016003D02*
X007253Y015234D01*
X007250Y015237D01*
X007647Y015234D02*
X007625Y015713D01*
X007625Y014750D01*
X007375Y014250D01*
X007250Y014250D01*
X008375Y012750D02*
X007875Y012250D01*
X008875Y013250D02*
X008875Y013500D01*
X010009Y014634D01*
X010009Y015234D01*
X010403Y015234D02*
X010375Y014500D01*
X009355Y013528D01*
X010875Y013250D02*
X011977Y014352D01*
X011977Y015234D01*
X012371Y015234D02*
X012371Y013746D01*
X011875Y013250D01*
X012765Y013390D02*
X012765Y015234D01*
X013158Y015234D02*
X013158Y013967D01*
X013875Y013250D01*
X012875Y013250D02*
X012765Y013390D01*
X013552Y014698D02*
X013552Y015234D01*
X013552Y014698D02*
X014875Y013250D01*
X016935Y016750D02*
X016935Y017065D01*
X009500Y016750D02*
X009435Y016750D01*
X007375Y016125D02*
X007253Y016003D01*
X008180Y007000D02*
X008180Y002930D01*
X007625Y002375D01*
D22*
X008575Y003500D02*
X008575Y006375D01*
X009220Y007000D01*
X009375Y007000D01*
X009875Y007500D01*
X009875Y010375D01*
X009000Y011250D01*
X008000Y011250D01*
X006500Y012750D01*
X005823Y016125D02*
X004440Y016125D01*
X004190Y016750D01*
X003065Y017875D01*
X002000Y017875D01*
X005250Y018000D02*
X005375Y018125D01*
X007375Y018125D01*
X008125Y018875D01*
X008125Y021125D01*
X009875Y021125D01*
X011375Y021125D01*
X013125Y021125D01*
X013125Y018125D02*
X016250Y018125D01*
X016935Y017440D01*
X016935Y017065D01*
X015815Y016750D02*
X015685Y016750D01*
X015750Y016690D01*
X015250Y016125D01*
X012440Y016125D01*
X008815Y016125D01*
X008315Y016750D01*
X005875Y016750D01*
X005823Y016125D01*
X005310Y016750D02*
X005310Y017185D01*
X007185Y017185D01*
X008125Y018125D01*
X009435Y017315D02*
X009435Y016750D01*
X009435Y017315D02*
X009875Y017750D01*
X009875Y018125D01*
X011375Y018125D02*
X012000Y017500D01*
X013125Y017500D01*
X013560Y017065D01*
X013560Y016750D01*
X012440Y016750D02*
X012440Y016125D01*
X014875Y012250D02*
X015750Y012250D01*
X016625Y011375D01*
X016625Y004500D01*
X018125Y003000D01*
X018125Y002375D01*
X017125Y004875D02*
X017125Y009375D01*
X019125Y011375D01*
X015345Y006735D02*
X014890Y006735D01*
X014625Y007000D01*
X014625Y008250D01*
X014375Y008500D01*
X013905Y008515D01*
X015345Y006735D02*
X015345Y005765D01*
X014500Y005765D01*
X014500Y001875D01*
X014000Y001375D01*
X013625Y001375D01*
X011905Y002625D02*
X011875Y002625D01*
X010250Y000750D01*
X005081Y000750D01*
X002750Y003081D01*
X002750Y010375D01*
X009000Y010375D01*
X009375Y010000D01*
X013345Y005765D02*
X014500Y005765D01*
X015345Y005765D02*
X015905Y005765D01*
X009345Y002655D02*
X008575Y003500D01*
X009345Y002655D02*
X009345Y002625D01*
X002750Y010375D02*
X002750Y012875D01*
X002125Y013375D01*
D23*
X005250Y018000D03*
X017125Y004875D03*
D24*
X007825Y014250D03*
X007250Y014250D03*
X007375Y016125D03*
X006841Y016125D03*
X006250Y016125D03*
D25*
X002000Y016875D03*
X009125Y005625D03*
X018125Y019375D03*
X018125Y020375D03*
X019125Y020375D03*
X019125Y021375D03*
X019125Y022375D03*
X019125Y023375D03*
X019125Y024375D03*
X020125Y024375D03*
X020125Y023375D03*
X020125Y022375D03*
X020125Y020125D03*
X020125Y019125D03*
X019125Y019375D03*
D26*
X017125Y019375D03*
X017125Y020375D03*
X017125Y021375D03*
X017125Y022375D03*
X017125Y023375D03*
X017125Y024375D03*
X017125Y025375D03*
X016125Y025375D03*
X016125Y024375D03*
X016125Y023375D03*
X016125Y022375D03*
X016125Y021375D03*
X016125Y020375D03*
X016125Y019375D03*
X015125Y019375D03*
X015125Y020375D03*
X015125Y021375D03*
X015125Y022375D03*
X015125Y023375D03*
X015125Y024375D03*
X015125Y025375D03*
X014125Y025375D03*
X014125Y024375D03*
X014125Y023375D03*
X014125Y022375D03*
X014125Y021375D03*
X014125Y020375D03*
X014125Y019375D03*
X013125Y022375D03*
X013125Y023375D03*
X013125Y024375D03*
X013125Y025375D03*
X012125Y025375D03*
X012125Y024375D03*
X012125Y023375D03*
X012125Y022375D03*
X011125Y022375D03*
X011125Y023375D03*
X011125Y024375D03*
X011125Y025375D03*
X010125Y025375D03*
X010125Y024375D03*
X010125Y023375D03*
X010125Y022375D03*
X009125Y022375D03*
X009125Y023375D03*
X009125Y024375D03*
X009125Y025375D03*
X008125Y025375D03*
X008125Y024375D03*
X008125Y023375D03*
X008125Y022375D03*
X007125Y022375D03*
X007125Y021375D03*
X007125Y020375D03*
X007125Y019375D03*
X006125Y019375D03*
X006125Y020375D03*
X006125Y021375D03*
X006125Y022375D03*
X006125Y023375D03*
X006125Y024375D03*
X006125Y025375D03*
X007125Y025375D03*
X007125Y024375D03*
X007125Y023375D03*
X005125Y023375D03*
X005125Y024375D03*
X005125Y025375D03*
X004125Y025375D03*
X004125Y024375D03*
X004125Y023375D03*
X004125Y022375D03*
X004125Y021375D03*
X004125Y020375D03*
X004125Y019375D03*
X005125Y019375D03*
X005125Y020375D03*
X005125Y021375D03*
X005125Y022375D03*
M02*
