G75*
G70*
%OFA0B0*%
%FSLAX24Y24*%
%IPPOS*%
%LPD*%
%AMOC8*
5,1,8,0,0,1.08239X$1,22.5*
%
%ADD10C,0.0230*%
%ADD11C,0.1162*%
%ADD12C,0.0375*%
%ADD13C,0.0660*%
%ADD14OC8,0.0540*%
%ADD15C,0.0591*%
%ADD16R,0.0257X0.1241*%
%ADD17C,0.0847*%
%ADD18OC8,0.0690*%
%ADD19C,0.0591*%
%ADD20OC8,0.0760*%
%ADD21R,0.0690X0.0770*%
%ADD22OC8,0.0910*%
%ADD23C,0.0600*%
%ADD24C,0.0660*%
%ADD25R,0.0496X0.0496*%
%ADD26OC8,0.0496*%
%ADD27OC8,0.0720*%
%ADD28R,0.0760X0.0760*%
D10*
X003264Y004990D02*
X003563Y004990D01*
X003712Y005139D01*
X003712Y005438D01*
X003414Y005438D01*
X003115Y005736D02*
X003115Y005139D01*
X003264Y004990D01*
X003115Y005736D02*
X003264Y005886D01*
X003563Y005886D01*
X003712Y005736D01*
X004300Y005587D02*
X004599Y005587D01*
X004748Y005438D01*
X004748Y004990D01*
X004300Y004990D01*
X004151Y005139D01*
X004300Y005289D01*
X004748Y005289D01*
X005187Y005587D02*
X005187Y004990D01*
X005485Y004990D02*
X005485Y005438D01*
X005635Y005587D01*
X005784Y005438D01*
X005784Y004990D01*
X005485Y005438D02*
X005336Y005587D01*
X005187Y005587D01*
X006223Y005587D02*
X006671Y005587D01*
X006820Y005438D01*
X006820Y005139D01*
X006671Y004990D01*
X006223Y004990D01*
X006223Y005886D01*
X007259Y005587D02*
X007259Y005139D01*
X007408Y004990D01*
X007856Y004990D01*
X007856Y004841D02*
X007706Y004691D01*
X007557Y004691D01*
X007856Y004841D02*
X007856Y005587D01*
D11*
X010625Y011000D03*
X017625Y001125D03*
X003125Y001125D03*
X020125Y021375D03*
X020125Y026375D03*
X001125Y026375D03*
D12*
X019125Y015375D03*
D13*
X015905Y011265D03*
X015905Y009485D03*
X015345Y008515D03*
X015345Y006735D03*
X015905Y005765D03*
X015905Y003985D03*
X013905Y006735D03*
X013345Y005765D03*
X013345Y003985D03*
X011345Y006735D03*
X011345Y008515D03*
X013345Y009485D03*
X013905Y008515D03*
X013345Y011265D03*
X017905Y008515D03*
X017905Y006735D03*
X002640Y021095D03*
X000860Y021095D03*
X000860Y023655D03*
X002640Y023655D03*
D14*
X005750Y013250D03*
X006500Y012750D03*
X005750Y012250D03*
D15*
X009375Y010000D03*
X010375Y010000D03*
X010375Y007000D03*
X009375Y007000D03*
X009875Y018125D03*
X011375Y018125D03*
X013125Y018125D03*
X013125Y021125D03*
X011375Y021125D03*
X009875Y021125D03*
X008125Y021125D03*
X008125Y018125D03*
D16*
X008040Y015234D03*
X007647Y015234D03*
X007253Y015234D03*
X006859Y015234D03*
X006466Y015234D03*
X006072Y015234D03*
X005678Y015234D03*
X008434Y015234D03*
X008828Y015234D03*
X009221Y015234D03*
X009615Y015234D03*
X010009Y015234D03*
X010403Y015234D03*
X010796Y015234D03*
X011190Y015234D03*
X011584Y015234D03*
X011977Y015234D03*
X012371Y015234D03*
X012765Y015234D03*
X013158Y015234D03*
X013552Y015234D03*
D17*
X016741Y014663D03*
X004458Y014663D03*
D18*
X002125Y014375D03*
X002125Y013375D03*
X002125Y012375D03*
X002125Y011375D03*
X002125Y010375D03*
X002125Y009375D03*
X002125Y007375D03*
X002125Y006375D03*
X002125Y005375D03*
X002125Y004375D03*
X002125Y003375D03*
X002125Y002375D03*
X007875Y012250D03*
X007875Y013250D03*
X008875Y013250D03*
X008875Y012250D03*
X009875Y012250D03*
X009875Y013250D03*
X010875Y013250D03*
X010875Y012250D03*
X011875Y012250D03*
X011875Y013250D03*
X012875Y013250D03*
X012875Y012250D03*
X013875Y012250D03*
X013875Y013250D03*
X014875Y013250D03*
X014875Y012250D03*
X019125Y012375D03*
X019125Y013375D03*
X019125Y014375D03*
X019125Y016375D03*
X019125Y017375D03*
X019125Y018375D03*
X019125Y011375D03*
X019125Y010375D03*
X019125Y009375D03*
X019125Y008375D03*
X019125Y007375D03*
X019125Y006375D03*
X019125Y005375D03*
X019125Y004375D03*
X019125Y003375D03*
X019125Y002375D03*
D19*
X001391Y002375D02*
X000859Y002375D01*
X000859Y003375D02*
X001391Y003375D01*
X001391Y004375D02*
X000859Y004375D01*
X000859Y005375D02*
X001391Y005375D01*
X001391Y006375D02*
X000859Y006375D01*
X000859Y007375D02*
X001391Y007375D01*
X001391Y009375D02*
X000859Y009375D01*
X000859Y010375D02*
X001391Y010375D01*
X001391Y011375D02*
X000859Y011375D01*
X000859Y012375D02*
X001391Y012375D01*
X001391Y013375D02*
X000859Y013375D01*
X000859Y014375D02*
X001391Y014375D01*
X019859Y014125D02*
X020391Y014125D01*
X020391Y013125D02*
X019859Y013125D01*
X019859Y012125D02*
X020391Y012125D01*
X020391Y011125D02*
X019859Y011125D01*
X019859Y009375D02*
X020391Y009375D01*
X020391Y008375D02*
X019859Y008375D01*
X019859Y007375D02*
X020391Y007375D01*
X020391Y006375D02*
X019859Y006375D01*
X019859Y005375D02*
X020391Y005375D01*
X020391Y004375D02*
X019859Y004375D01*
X019859Y003375D02*
X020391Y003375D01*
X020391Y002375D02*
X019859Y002375D01*
X019859Y015125D02*
X020391Y015125D01*
X020391Y016125D02*
X019859Y016125D01*
X019859Y017125D02*
X020391Y017125D01*
X020391Y018125D02*
X019859Y018125D01*
D20*
X008180Y009559D03*
X008180Y008102D03*
X008180Y007000D03*
X004125Y007000D03*
X004125Y008102D03*
X004125Y009559D03*
D21*
X004190Y016750D03*
X005310Y016750D03*
X008315Y016750D03*
X009435Y016750D03*
X012440Y016750D03*
X013560Y016750D03*
X015815Y016750D03*
X016935Y016750D03*
D22*
X011905Y002625D03*
X009345Y002625D03*
D23*
X007895Y002375D02*
X007355Y002375D01*
X007355Y001375D02*
X007895Y001375D01*
X010125Y005355D02*
X010125Y005895D01*
X011125Y005895D02*
X011125Y005355D01*
X013355Y002375D02*
X013895Y002375D01*
X013895Y001375D02*
X013355Y001375D01*
X002270Y017875D02*
X001730Y017875D01*
X001730Y018875D02*
X002270Y018875D01*
D24*
X015125Y002675D02*
X015125Y002075D01*
X016125Y002075D02*
X016125Y002675D01*
X017125Y002675D02*
X017125Y002075D01*
X018125Y002075D02*
X018125Y002675D01*
D25*
X017125Y004875D03*
X005250Y018000D03*
D26*
X006250Y016125D03*
X006841Y016125D03*
X007375Y016125D03*
X007250Y014250D03*
X007825Y014250D03*
D27*
X002000Y016875D03*
X009125Y005625D03*
X018125Y019375D03*
X018125Y020375D03*
X019125Y020375D03*
X019125Y021375D03*
X019125Y022375D03*
X019125Y023375D03*
X019125Y024375D03*
X020125Y024375D03*
X020125Y023375D03*
X020125Y022375D03*
X020125Y020125D03*
X020125Y019125D03*
X019125Y019375D03*
D28*
X017125Y019375D03*
X017125Y020375D03*
X017125Y021375D03*
X017125Y022375D03*
X017125Y023375D03*
X017125Y024375D03*
X017125Y025375D03*
X016125Y025375D03*
X016125Y024375D03*
X016125Y023375D03*
X016125Y022375D03*
X016125Y021375D03*
X016125Y020375D03*
X016125Y019375D03*
X015125Y019375D03*
X015125Y020375D03*
X015125Y021375D03*
X015125Y022375D03*
X015125Y023375D03*
X015125Y024375D03*
X015125Y025375D03*
X014125Y025375D03*
X014125Y024375D03*
X014125Y023375D03*
X014125Y022375D03*
X014125Y021375D03*
X014125Y020375D03*
X014125Y019375D03*
X013125Y022375D03*
X013125Y023375D03*
X013125Y024375D03*
X013125Y025375D03*
X012125Y025375D03*
X012125Y024375D03*
X012125Y023375D03*
X012125Y022375D03*
X011125Y022375D03*
X011125Y023375D03*
X011125Y024375D03*
X011125Y025375D03*
X010125Y025375D03*
X010125Y024375D03*
X010125Y023375D03*
X010125Y022375D03*
X009125Y022375D03*
X009125Y023375D03*
X009125Y024375D03*
X009125Y025375D03*
X008125Y025375D03*
X008125Y024375D03*
X008125Y023375D03*
X008125Y022375D03*
X007125Y022375D03*
X007125Y021375D03*
X007125Y020375D03*
X007125Y019375D03*
X006125Y019375D03*
X006125Y020375D03*
X006125Y021375D03*
X006125Y022375D03*
X006125Y023375D03*
X006125Y024375D03*
X006125Y025375D03*
X007125Y025375D03*
X007125Y024375D03*
X007125Y023375D03*
X005125Y023375D03*
X005125Y024375D03*
X005125Y025375D03*
X004125Y025375D03*
X004125Y024375D03*
X004125Y023375D03*
X004125Y022375D03*
X004125Y021375D03*
X004125Y020375D03*
X004125Y019375D03*
X005125Y019375D03*
X005125Y020375D03*
X005125Y021375D03*
X005125Y022375D03*
M02*
