G75*
G70*
%OFA0B0*%
%FSLAX24Y24*%
%IPPOS*%
%LPD*%
%AMOC8*
5,1,8,0,0,1.08239X$1,22.5*
%
%ADD10C,0.0120*%
%ADD11C,0.0240*%
%ADD12C,0.0040*%
%ADD13C,0.0110*%
%ADD14C,0.1162*%
%ADD15C,0.0280*%
%ADD16C,0.0080*%
%ADD17C,0.0375*%
%ADD18C,0.0660*%
%ADD19OC8,0.0540*%
%ADD20C,0.0591*%
%ADD21C,0.0847*%
%ADD22OC8,0.0690*%
%ADD23C,0.0591*%
%ADD24OC8,0.0760*%
%ADD25OC8,0.0910*%
%ADD26C,0.0600*%
%ADD27C,0.0660*%
%ADD28R,0.0496X0.0496*%
%ADD29OC8,0.0496*%
%ADD30OC8,0.0720*%
%ADD31R,0.0760X0.0760*%
D10*
X007750Y018500D02*
X007750Y018946D01*
X007750Y018500D02*
X008500Y018500D01*
X008500Y018946D01*
X008500Y019340D02*
X008500Y019785D01*
X008500Y020179D02*
X008500Y020625D01*
X007750Y020625D01*
X007750Y020179D01*
X007750Y019785D02*
X007750Y019340D01*
X009500Y019381D02*
X009500Y019869D01*
X009500Y020262D02*
X009500Y020750D01*
X010250Y020750D01*
X010250Y020262D01*
X010250Y019869D02*
X010250Y019381D01*
X010250Y018988D02*
X010250Y018500D01*
X009500Y018500D01*
X009500Y018988D01*
X011000Y018988D02*
X011000Y018500D01*
X011750Y018500D01*
X011750Y018988D01*
X011750Y019381D02*
X011750Y019869D01*
X011750Y020262D02*
X011750Y020750D01*
X011000Y020750D01*
X011000Y020262D01*
X011000Y019869D02*
X011000Y019381D01*
X012750Y019381D02*
X012750Y019869D01*
X012750Y020262D02*
X012750Y020750D01*
X013500Y020750D01*
X013500Y020262D01*
X013500Y019869D02*
X013500Y019381D01*
X013500Y018988D02*
X013500Y018500D01*
X012750Y018500D01*
X012750Y018988D01*
D11*
X019125Y017375D02*
X019375Y017125D01*
X019875Y017125D01*
X019875Y016125D02*
X019375Y016125D01*
X019125Y016375D01*
X019875Y015125D02*
X019125Y014375D01*
X019875Y014125D02*
X019125Y013375D01*
X019875Y013125D02*
X019125Y012375D01*
X019875Y012125D02*
X019125Y011375D01*
X019875Y011125D02*
X019125Y010375D01*
X019125Y009375D02*
X020125Y009375D01*
X020125Y008375D02*
X019125Y008375D01*
X019125Y007375D02*
X020125Y007375D01*
X020125Y006375D02*
X019125Y006375D01*
X019125Y003375D02*
X020125Y003375D01*
X020125Y002375D02*
X019125Y002375D01*
X013625Y002375D02*
X013625Y001375D01*
X011125Y005625D02*
X010125Y005625D01*
X007625Y002375D02*
X007625Y001375D01*
X002125Y002375D02*
X001125Y002375D01*
X001125Y003375D02*
X002125Y003375D01*
D12*
X007895Y019270D02*
X008355Y019270D01*
X008355Y019500D01*
X008279Y019577D01*
X008125Y019577D01*
X008048Y019500D01*
X008048Y019270D01*
X008048Y019423D02*
X007895Y019577D01*
X007972Y019730D02*
X007895Y019807D01*
X007895Y019961D01*
X007972Y020037D01*
X008048Y020037D01*
X008125Y019961D01*
X008125Y019884D01*
X008125Y019961D02*
X008202Y020037D01*
X008279Y020037D01*
X008355Y019961D01*
X008355Y019807D01*
X008279Y019730D01*
X009645Y019577D02*
X009798Y019423D01*
X009798Y019500D02*
X009798Y019270D01*
X009645Y019270D02*
X010105Y019270D01*
X010105Y019500D01*
X010029Y019577D01*
X009875Y019577D01*
X009798Y019500D01*
X009875Y019730D02*
X009875Y020037D01*
X009645Y019961D02*
X010105Y019961D01*
X009875Y019730D01*
X011145Y019807D02*
X011222Y019730D01*
X011145Y019807D02*
X011145Y019961D01*
X011222Y020037D01*
X011375Y020037D01*
X011452Y019961D01*
X011452Y019884D01*
X011375Y019730D01*
X011605Y019730D01*
X011605Y020037D01*
X011529Y019577D02*
X011375Y019577D01*
X011298Y019500D01*
X011298Y019270D01*
X011145Y019270D02*
X011605Y019270D01*
X011605Y019500D01*
X011529Y019577D01*
X011298Y019423D02*
X011145Y019577D01*
X012895Y019577D02*
X013048Y019423D01*
X013048Y019500D02*
X013048Y019270D01*
X012895Y019270D02*
X013355Y019270D01*
X013355Y019500D01*
X013279Y019577D01*
X013125Y019577D01*
X013048Y019500D01*
X012972Y019730D02*
X012895Y019807D01*
X012895Y019961D01*
X012972Y020037D01*
X013048Y020037D01*
X013125Y019961D01*
X013125Y019730D01*
X012972Y019730D01*
X013125Y019730D02*
X013279Y019884D01*
X013355Y020037D01*
D13*
X014195Y025858D02*
X014096Y025957D01*
X014096Y026449D01*
X014391Y026449D01*
X014490Y026350D01*
X014490Y026153D01*
X014391Y026055D01*
X014096Y026055D01*
X014195Y025858D02*
X014293Y025858D01*
X013845Y026055D02*
X013648Y026055D01*
X013747Y026055D02*
X013747Y026449D01*
X013845Y026449D01*
X013747Y026646D02*
X013747Y026744D01*
X013416Y026350D02*
X013416Y026153D01*
X013317Y026055D01*
X013022Y026055D01*
X012771Y026153D02*
X012673Y026252D01*
X012377Y026252D01*
X012377Y026350D02*
X012377Y026055D01*
X012673Y026055D01*
X012771Y026153D01*
X012673Y026449D02*
X012476Y026449D01*
X012377Y026350D01*
X012126Y026055D02*
X011930Y026055D01*
X012028Y026055D02*
X012028Y026646D01*
X012126Y026646D01*
X011697Y026449D02*
X011303Y026449D01*
X011697Y026055D01*
X011303Y026055D01*
X011052Y026153D02*
X011052Y026350D01*
X010954Y026449D01*
X010757Y026449D01*
X010659Y026350D01*
X010659Y026252D01*
X011052Y026252D01*
X011052Y026153D02*
X010954Y026055D01*
X010757Y026055D01*
X010408Y026055D02*
X010408Y026449D01*
X010408Y026252D02*
X010211Y026449D01*
X010112Y026449D01*
X009871Y026350D02*
X009871Y026153D01*
X009772Y026055D01*
X009575Y026055D01*
X009477Y026153D01*
X009477Y026350D01*
X009575Y026449D01*
X009772Y026449D01*
X009871Y026350D01*
X009226Y026153D02*
X009226Y026055D01*
X009128Y026055D01*
X009128Y026153D01*
X009226Y026153D01*
X008904Y026153D02*
X008805Y026055D01*
X008510Y026055D01*
X008904Y026153D02*
X008904Y026350D01*
X008805Y026449D01*
X008510Y026449D01*
X008259Y026350D02*
X008259Y026153D01*
X008161Y026055D01*
X007964Y026055D01*
X007866Y026153D01*
X007866Y026350D01*
X007964Y026449D01*
X008161Y026449D01*
X008259Y026350D01*
X007615Y026449D02*
X007615Y026055D01*
X007418Y026055D02*
X007418Y026350D01*
X007319Y026449D01*
X007221Y026350D01*
X007221Y026055D01*
X007418Y026350D02*
X007516Y026449D01*
X007615Y026449D01*
X006970Y026055D02*
X006576Y026646D01*
X006326Y026350D02*
X006326Y026153D01*
X006227Y026055D01*
X005932Y026055D01*
X005932Y025957D02*
X005932Y026449D01*
X006227Y026449D01*
X006326Y026350D01*
X006129Y025858D02*
X006030Y025858D01*
X005932Y025957D01*
X005681Y026153D02*
X005583Y026252D01*
X005287Y026252D01*
X005287Y026350D02*
X005287Y026055D01*
X005583Y026055D01*
X005681Y026153D01*
X005583Y026449D02*
X005386Y026449D01*
X005287Y026350D01*
X005036Y026449D02*
X005036Y026055D01*
X004840Y026055D02*
X004840Y026350D01*
X004741Y026449D01*
X004643Y026350D01*
X004643Y026055D01*
X004392Y026055D02*
X004097Y026055D01*
X003998Y026153D01*
X003998Y026350D01*
X004097Y026449D01*
X004392Y026449D01*
X004392Y026646D02*
X004392Y026055D01*
X004840Y026350D02*
X004938Y026449D01*
X005036Y026449D01*
X003747Y026449D02*
X003747Y026153D01*
X003649Y026055D01*
X003354Y026055D01*
X003354Y025957D02*
X003452Y025858D01*
X003550Y025858D01*
X003354Y025957D02*
X003354Y026449D01*
X013022Y026449D02*
X013317Y026449D01*
X013416Y026350D01*
X014741Y026350D02*
X014839Y026449D01*
X015036Y026449D01*
X015134Y026350D01*
X015134Y026153D01*
X015036Y026055D01*
X014839Y026055D01*
X014741Y026153D01*
X014741Y026350D01*
X015367Y026055D02*
X015564Y026055D01*
X015466Y026055D02*
X015466Y026646D01*
X015564Y026646D01*
X015788Y026153D02*
X015788Y026055D01*
X015886Y026055D01*
X015886Y026153D01*
X015788Y026153D01*
X016137Y026153D02*
X016236Y026055D01*
X016334Y026153D01*
X016432Y026055D01*
X016531Y026153D01*
X016531Y026449D01*
X016782Y026449D02*
X016782Y026153D01*
X016880Y026055D01*
X016979Y026153D01*
X017077Y026055D01*
X017175Y026153D01*
X017175Y026449D01*
X017426Y026449D02*
X017426Y026153D01*
X017525Y026055D01*
X017623Y026153D01*
X017722Y026055D01*
X017820Y026153D01*
X017820Y026449D01*
X016137Y026449D02*
X016137Y026153D01*
D14*
X020125Y026375D03*
X020125Y021375D03*
X010625Y011000D03*
X017625Y001125D03*
X003125Y001125D03*
X001125Y026375D03*
D15*
X003271Y005861D02*
X003130Y005720D01*
X003130Y005156D01*
X003271Y005015D01*
X003553Y005015D01*
X003694Y005156D01*
X003694Y005438D01*
X003412Y005438D01*
X003694Y005720D02*
X003553Y005861D01*
X003271Y005861D01*
X004307Y005579D02*
X004589Y005579D01*
X004730Y005438D01*
X004730Y005015D01*
X004307Y005015D01*
X004166Y005156D01*
X004307Y005297D01*
X004730Y005297D01*
X005202Y005015D02*
X005202Y005579D01*
X005343Y005579D01*
X005484Y005438D01*
X005625Y005579D01*
X005766Y005438D01*
X005766Y005015D01*
X005484Y005015D02*
X005484Y005438D01*
X006238Y005579D02*
X006661Y005579D01*
X006801Y005438D01*
X006801Y005156D01*
X006661Y005015D01*
X006238Y005015D01*
X006238Y005861D01*
X007274Y005579D02*
X007274Y005156D01*
X007414Y005015D01*
X007837Y005015D01*
X007837Y004874D02*
X007696Y004733D01*
X007555Y004733D01*
X007837Y004874D02*
X007837Y005579D01*
D16*
X007719Y015290D02*
X007719Y015710D01*
X007509Y015570D02*
X007719Y015430D01*
X007509Y015290D01*
X007335Y015360D02*
X007335Y015500D01*
X007265Y015570D01*
X007125Y015570D01*
X007055Y015500D01*
X007055Y015430D01*
X007335Y015430D01*
X007335Y015360D02*
X007265Y015290D01*
X007125Y015290D01*
X006875Y015290D02*
X006664Y015290D01*
X006594Y015360D01*
X006664Y015430D01*
X006805Y015430D01*
X006875Y015500D01*
X006805Y015570D01*
X006594Y015570D01*
X007899Y015500D02*
X007899Y015360D01*
X007969Y015290D01*
X008109Y015290D01*
X008179Y015360D01*
X008179Y015500D01*
X008109Y015570D01*
X007969Y015570D01*
X007899Y015500D01*
X008346Y015570D02*
X008486Y015570D01*
X008416Y015640D02*
X008416Y015360D01*
X008346Y015290D01*
X008666Y015360D02*
X008666Y015430D01*
X008736Y015500D01*
X008876Y015500D01*
X008946Y015570D01*
X008946Y015640D01*
X008876Y015710D01*
X008736Y015710D01*
X008666Y015640D01*
X008666Y015360D02*
X008736Y015290D01*
X008876Y015290D01*
X008946Y015360D01*
X009567Y015360D02*
X009567Y015290D01*
X009637Y015290D01*
X009637Y015360D01*
X009567Y015360D01*
X009817Y015290D02*
X009957Y015430D01*
X009887Y015430D02*
X010097Y015430D01*
X010097Y015290D02*
X010097Y015710D01*
X009887Y015710D01*
X009817Y015640D01*
X009817Y015500D01*
X009887Y015430D01*
X010258Y015360D02*
X010258Y015290D01*
X010328Y015290D01*
X010328Y015360D01*
X010258Y015360D01*
X010508Y015360D02*
X010508Y015640D01*
X010578Y015710D01*
X010788Y015710D01*
X010788Y015290D01*
X010578Y015290D01*
X010508Y015360D01*
X011429Y015290D02*
X011709Y015290D01*
X011429Y015570D01*
X011429Y015640D01*
X011499Y015710D01*
X011639Y015710D01*
X011709Y015640D01*
X011889Y015290D02*
X012169Y015290D01*
X012029Y015290D02*
X012029Y015710D01*
X012169Y015570D01*
X012349Y015640D02*
X012349Y015360D01*
X012419Y015290D01*
X012560Y015290D01*
X012630Y015360D01*
X012349Y015640D01*
X012419Y015710D01*
X012560Y015710D01*
X012630Y015640D01*
X012630Y015360D01*
X012810Y015290D02*
X013090Y015290D01*
X012810Y015570D01*
X012810Y015640D01*
X012880Y015710D01*
X013020Y015710D01*
X013090Y015640D01*
X013717Y015570D02*
X013857Y015710D01*
X013717Y015570D02*
X013717Y015430D01*
X013857Y015290D01*
X014037Y015290D02*
X014248Y015290D01*
X014318Y015360D01*
X014318Y015500D01*
X014248Y015570D01*
X014037Y015570D01*
X014498Y015570D02*
X014708Y015570D01*
X014778Y015500D01*
X014778Y015360D01*
X014708Y015290D01*
X014498Y015290D01*
X014945Y015290D02*
X015085Y015430D01*
X015085Y015570D01*
X014945Y015710D01*
D17*
X019125Y015375D03*
D18*
X015905Y011265D03*
X015905Y009485D03*
X015345Y008515D03*
X015345Y006735D03*
X015905Y005765D03*
X015905Y003985D03*
X013905Y006735D03*
X013345Y005765D03*
X013345Y003985D03*
X011345Y006735D03*
X011345Y008515D03*
X013345Y009485D03*
X013905Y008515D03*
X013345Y011265D03*
X017905Y008515D03*
X017905Y006735D03*
X002640Y021095D03*
X000860Y021095D03*
X000860Y023655D03*
X002640Y023655D03*
D19*
X005750Y013250D03*
X006500Y012750D03*
X005750Y012250D03*
D20*
X009375Y010000D03*
X010375Y010000D03*
X010375Y007000D03*
X009375Y007000D03*
X009875Y018125D03*
X011375Y018125D03*
X013125Y018125D03*
X013125Y021125D03*
X011375Y021125D03*
X009875Y021125D03*
X008125Y021125D03*
X008125Y018125D03*
D21*
X004458Y014663D03*
X016741Y014663D03*
D22*
X014875Y013250D03*
X014875Y012250D03*
X013875Y012250D03*
X013875Y013250D03*
X012875Y013250D03*
X012875Y012250D03*
X011875Y012250D03*
X011875Y013250D03*
X010875Y013250D03*
X010875Y012250D03*
X009875Y012250D03*
X009875Y013250D03*
X008875Y013250D03*
X008875Y012250D03*
X007875Y012250D03*
X007875Y013250D03*
X002125Y013375D03*
X002125Y012375D03*
X002125Y011375D03*
X002125Y010375D03*
X002125Y009375D03*
X002125Y007375D03*
X002125Y006375D03*
X002125Y005375D03*
X002125Y004375D03*
X002125Y003375D03*
X002125Y002375D03*
X002125Y014375D03*
X019125Y014375D03*
X019125Y013375D03*
X019125Y012375D03*
X019125Y011375D03*
X019125Y010375D03*
X019125Y009375D03*
X019125Y008375D03*
X019125Y007375D03*
X019125Y006375D03*
X019125Y005375D03*
X019125Y004375D03*
X019125Y003375D03*
X019125Y002375D03*
X019125Y016375D03*
X019125Y017375D03*
X019125Y018375D03*
D23*
X001391Y002375D02*
X000859Y002375D01*
X000859Y003375D02*
X001391Y003375D01*
X001391Y004375D02*
X000859Y004375D01*
X000859Y005375D02*
X001391Y005375D01*
X001391Y006375D02*
X000859Y006375D01*
X000859Y007375D02*
X001391Y007375D01*
X001391Y009375D02*
X000859Y009375D01*
X000859Y010375D02*
X001391Y010375D01*
X001391Y011375D02*
X000859Y011375D01*
X000859Y012375D02*
X001391Y012375D01*
X001391Y013375D02*
X000859Y013375D01*
X000859Y014375D02*
X001391Y014375D01*
X019859Y014125D02*
X020391Y014125D01*
X020391Y013125D02*
X019859Y013125D01*
X019859Y012125D02*
X020391Y012125D01*
X020391Y011125D02*
X019859Y011125D01*
X019859Y009375D02*
X020391Y009375D01*
X020391Y008375D02*
X019859Y008375D01*
X019859Y007375D02*
X020391Y007375D01*
X020391Y006375D02*
X019859Y006375D01*
X019859Y005375D02*
X020391Y005375D01*
X020391Y004375D02*
X019859Y004375D01*
X019859Y003375D02*
X020391Y003375D01*
X020391Y002375D02*
X019859Y002375D01*
X019859Y015125D02*
X020391Y015125D01*
X020391Y016125D02*
X019859Y016125D01*
X019859Y017125D02*
X020391Y017125D01*
X020391Y018125D02*
X019859Y018125D01*
D24*
X008180Y009559D03*
X008180Y008102D03*
X008180Y007000D03*
X004125Y007000D03*
X004125Y008102D03*
X004125Y009559D03*
D25*
X009345Y002625D03*
X011905Y002625D03*
D26*
X013355Y002375D02*
X013895Y002375D01*
X013895Y001375D02*
X013355Y001375D01*
X011125Y005355D02*
X011125Y005895D01*
X010125Y005895D02*
X010125Y005355D01*
X007895Y002375D02*
X007355Y002375D01*
X007355Y001375D02*
X007895Y001375D01*
X002270Y017875D02*
X001730Y017875D01*
X001730Y018875D02*
X002270Y018875D01*
D27*
X015125Y002675D02*
X015125Y002075D01*
X016125Y002075D02*
X016125Y002675D01*
X017125Y002675D02*
X017125Y002075D01*
X018125Y002075D02*
X018125Y002675D01*
D28*
X017125Y004875D03*
X005250Y018000D03*
D29*
X006250Y016125D03*
X006841Y016125D03*
X007375Y016125D03*
X007250Y014250D03*
X007825Y014250D03*
D30*
X002000Y016875D03*
X009125Y005625D03*
X018125Y019375D03*
X018125Y020375D03*
X019125Y020375D03*
X019125Y021375D03*
X019125Y022375D03*
X019125Y023375D03*
X019125Y024375D03*
X020125Y024375D03*
X020125Y023375D03*
X020125Y022375D03*
X020125Y020125D03*
X020125Y019125D03*
X019125Y019375D03*
D31*
X017125Y019375D03*
X017125Y020375D03*
X017125Y021375D03*
X017125Y022375D03*
X017125Y023375D03*
X017125Y024375D03*
X017125Y025375D03*
X016125Y025375D03*
X016125Y024375D03*
X016125Y023375D03*
X016125Y022375D03*
X016125Y021375D03*
X016125Y020375D03*
X016125Y019375D03*
X015125Y019375D03*
X015125Y020375D03*
X015125Y021375D03*
X015125Y022375D03*
X015125Y023375D03*
X015125Y024375D03*
X015125Y025375D03*
X014125Y025375D03*
X014125Y024375D03*
X014125Y023375D03*
X014125Y022375D03*
X014125Y021375D03*
X014125Y020375D03*
X014125Y019375D03*
X013125Y022375D03*
X013125Y023375D03*
X013125Y024375D03*
X013125Y025375D03*
X012125Y025375D03*
X012125Y024375D03*
X012125Y023375D03*
X012125Y022375D03*
X011125Y022375D03*
X011125Y023375D03*
X011125Y024375D03*
X011125Y025375D03*
X010125Y025375D03*
X010125Y024375D03*
X010125Y023375D03*
X010125Y022375D03*
X009125Y022375D03*
X009125Y023375D03*
X009125Y024375D03*
X009125Y025375D03*
X008125Y025375D03*
X008125Y024375D03*
X008125Y023375D03*
X008125Y022375D03*
X007125Y022375D03*
X007125Y021375D03*
X007125Y020375D03*
X007125Y019375D03*
X006125Y019375D03*
X006125Y020375D03*
X006125Y021375D03*
X006125Y022375D03*
X006125Y023375D03*
X006125Y024375D03*
X006125Y025375D03*
X007125Y025375D03*
X007125Y024375D03*
X007125Y023375D03*
X005125Y023375D03*
X005125Y024375D03*
X005125Y025375D03*
X004125Y025375D03*
X004125Y024375D03*
X004125Y023375D03*
X004125Y022375D03*
X004125Y021375D03*
X004125Y020375D03*
X004125Y019375D03*
X005125Y019375D03*
X005125Y020375D03*
X005125Y021375D03*
X005125Y022375D03*
M02*
