%
M48
M72
T01C0.0236
T02C0.0315
T03C0.0320
T04C0.0354
T05C0.0360
T06C0.0394
T07C0.0400
T08C0.0787
T09C0.1102
%
T01
X7250Y14250
X7825Y14250
X7375Y16125
X6841Y16125
X6250Y16125
X5250Y18000
X17125Y4875
T02
X19125Y15375
X19125Y19375
X19125Y20375
X19125Y21375
X19125Y22375
X19125Y23375
X19125Y24375
X18125Y20375
X18125Y19375
T03
X14875Y13250
X14875Y12250
X13875Y12250
X13875Y13250
X12875Y13250
X12875Y12250
X11875Y12250
X11875Y13250
X10875Y13250
X10875Y12250
X9875Y12250
X9875Y13250
X8875Y13250
X8875Y12250
X7875Y12250
X7875Y13250
X6500Y12750
X5750Y12250
X5750Y13250
T04
X1125Y2375
X1125Y3375
X1125Y4375
X1125Y5375
X1125Y6375
X1125Y7375
X1125Y9375
X1125Y10375
X1125Y11375
X1125Y12375
X1125Y13375
X1125Y14375
X4125Y19375
X4125Y20375
X4125Y21375
X4125Y22375
X4125Y23375
X4125Y24375
X4125Y25375
X5125Y25375
X5125Y24375
X5125Y23375
X5125Y22375
X5125Y21375
X5125Y20375
X5125Y19375
X6125Y19375
X6125Y20375
X6125Y21375
X6125Y22375
X6125Y23375
X6125Y24375
X6125Y25375
X7125Y25375
X7125Y24375
X7125Y23375
X7125Y22375
X7125Y21375
X7125Y20375
X7125Y19375
X8125Y18125
X9875Y18125
X11375Y18125
X13125Y18125
X14125Y19375
X14125Y20375
X14125Y21375
X14125Y22375
X14125Y23375
X14125Y24375
X14125Y25375
X13125Y25375
X13125Y24375
X13125Y23375
X13125Y22375
X12125Y22375
X12125Y23375
X12125Y24375
X12125Y25375
X11125Y25375
X11125Y24375
X11125Y23375
X11125Y22375
X10125Y22375
X10125Y23375
X10125Y24375
X10125Y25375
X9125Y25375
X9125Y24375
X9125Y23375
X9125Y22375
X8125Y22375
X8125Y23375
X8125Y24375
X8125Y25375
X8125Y21125
X9875Y21125
X11375Y21125
X13125Y21125
X15125Y21375
X15125Y20375
X15125Y19375
X16125Y19375
X16125Y20375
X16125Y21375
X16125Y22375
X16125Y23375
X16125Y24375
X16125Y25375
X15125Y25375
X15125Y24375
X15125Y23375
X15125Y22375
X17125Y22375
X17125Y21375
X17125Y20375
X17125Y19375
X20125Y18125
X20125Y17125
X20125Y16125
X20125Y15125
X20125Y14125
X20125Y13125
X20125Y12125
X20125Y11125
X20125Y9375
X20125Y8375
X20125Y7375
X20125Y6375
X20125Y5375
X20125Y4375
X20125Y3375
X20125Y2375
X10375Y7000
X9375Y7000
X9375Y10000
X10375Y10000
X17125Y23375
X17125Y24375
X17125Y25375
T05
X19125Y18375
X19125Y17375
X19125Y16375
X19125Y14375
X19125Y13375
X19125Y12375
X19125Y11375
X19125Y10375
X19125Y9375
X19125Y8375
X19125Y7375
X19125Y6375
X19125Y5375
X19125Y4375
X19125Y3375
X19125Y2375
X13625Y2375
X13625Y1375
X11905Y2625
X11125Y5625
X10125Y5625
X9345Y2625
X7625Y2375
X7625Y1375
X2125Y2375
X2125Y3375
X2125Y4375
X2125Y5375
X2125Y6375
X2125Y7375
X2125Y9375
X2125Y10375
X2125Y11375
X2125Y12375
X2125Y13375
X2125Y14375
X2000Y17875
X2000Y18875
T06
X2000Y16875
X4125Y9559
X4125Y8102
X4125Y7000
X8180Y7000
X8180Y8102
X8180Y9559
X9125Y5625
X20125Y19125
X20125Y20125
X20125Y22375
X20125Y23375
X20125Y24375
T07
X15905Y11265
X15905Y9485
X15345Y8515
X15345Y6735
X15905Y5765
X15905Y3985
X16125Y2375
X15125Y2375
X13345Y3985
X13345Y5765
X13905Y6735
X13905Y8515
X13345Y9485
X13345Y11265
X11345Y8515
X11345Y6735
X17125Y2375
X18125Y2375
X17905Y6735
X17905Y8515
X2640Y21095
X860Y21095
X860Y23655
X2640Y23655
T08
X4458Y14663
X16741Y14663
T09
X20125Y21375
X20125Y26375
X10625Y11000
X17625Y1125
X3125Y1125
X1125Y26375
M30
