G75*
G70*
%OFA0B0*%
%FSLAX24Y24*%
%IPPOS*%
%LPD*%
%AMOC8*
5,1,8,0,0,1.08239X$1,22.5*
%
%ADD10C,0.0120*%
%ADD11C,0.0160*%
%ADD12C,0.0050*%
%ADD13C,0.0080*%
%ADD14C,0.0040*%
%ADD15C,0.0100*%
%ADD16C,0.0060*%
%ADD17C,0.0030*%
%ADD18C,0.0020*%
D10*
X004625Y006750D02*
X004625Y009875D01*
X007625Y009875D01*
X007625Y006750D01*
X004625Y006750D01*
X007125Y002875D02*
X008125Y002875D01*
X008125Y002471D01*
X008125Y002077D02*
X008125Y001673D01*
X008125Y001279D02*
X008125Y000875D01*
X007125Y000875D01*
X007125Y001279D01*
X007125Y001673D02*
X007125Y002077D01*
X007125Y002471D02*
X007125Y002875D01*
X009625Y005125D02*
X009625Y006125D01*
X010029Y006125D01*
X010423Y006125D02*
X010827Y006125D01*
X011221Y006125D02*
X011625Y006125D01*
X011625Y005125D01*
X011221Y005125D01*
X010827Y005125D02*
X010423Y005125D01*
X010029Y005125D02*
X009625Y005125D01*
X009750Y007625D02*
X009000Y007625D01*
X009000Y009500D01*
X009750Y009500D01*
X009750Y007625D01*
X010000Y007625D02*
X010000Y009500D01*
X010750Y009500D01*
X010750Y007625D01*
X010000Y007625D01*
X011649Y007625D02*
X011651Y007687D01*
X011657Y007749D01*
X011667Y007810D01*
X011680Y007870D01*
X011698Y007930D01*
X011719Y007988D01*
X011744Y008044D01*
X011772Y008100D01*
X011804Y008153D01*
X011839Y008204D01*
X011877Y008252D01*
X011919Y008299D01*
X011963Y008342D01*
X012010Y008383D01*
X012059Y008420D01*
X012110Y008454D01*
X012164Y008485D01*
X012220Y008513D01*
X012277Y008537D01*
X012335Y008557D01*
X012395Y008573D01*
X012456Y008586D01*
X012517Y008595D01*
X012579Y008600D01*
X012640Y008601D01*
X012702Y008598D01*
X012764Y008591D01*
X012825Y008580D01*
X012885Y008566D01*
X012944Y008547D01*
X013002Y008525D01*
X013058Y008499D01*
X013113Y008470D01*
X013166Y008438D01*
X013216Y008402D01*
X013264Y008363D01*
X013310Y008321D01*
X013352Y008276D01*
X013392Y008228D01*
X013429Y008178D01*
X013462Y008126D01*
X013493Y008072D01*
X013519Y008016D01*
X013542Y007959D01*
X013561Y007900D01*
X013577Y007840D01*
X013589Y007779D01*
X013597Y007718D01*
X013601Y007656D01*
X013601Y007594D01*
X013597Y007532D01*
X013589Y007471D01*
X013577Y007410D01*
X013561Y007350D01*
X013542Y007291D01*
X013519Y007234D01*
X013493Y007178D01*
X013462Y007124D01*
X013429Y007072D01*
X013392Y007022D01*
X013352Y006974D01*
X013310Y006929D01*
X013264Y006887D01*
X013216Y006848D01*
X013166Y006812D01*
X013113Y006780D01*
X013058Y006751D01*
X013002Y006725D01*
X012944Y006703D01*
X012885Y006684D01*
X012825Y006670D01*
X012764Y006659D01*
X012702Y006652D01*
X012640Y006649D01*
X012579Y006650D01*
X012517Y006655D01*
X012456Y006664D01*
X012395Y006677D01*
X012335Y006693D01*
X012277Y006713D01*
X012220Y006737D01*
X012164Y006765D01*
X012110Y006796D01*
X012059Y006830D01*
X012010Y006867D01*
X011963Y006908D01*
X011919Y006951D01*
X011877Y006998D01*
X011839Y007046D01*
X011804Y007097D01*
X011772Y007150D01*
X011744Y007206D01*
X011719Y007262D01*
X011698Y007320D01*
X011680Y007380D01*
X011667Y007440D01*
X011657Y007501D01*
X011651Y007563D01*
X011649Y007625D01*
X013649Y004875D02*
X013651Y004937D01*
X013657Y004999D01*
X013667Y005060D01*
X013680Y005120D01*
X013698Y005180D01*
X013719Y005238D01*
X013744Y005294D01*
X013772Y005350D01*
X013804Y005403D01*
X013839Y005454D01*
X013877Y005502D01*
X013919Y005549D01*
X013963Y005592D01*
X014010Y005633D01*
X014059Y005670D01*
X014110Y005704D01*
X014164Y005735D01*
X014220Y005763D01*
X014277Y005787D01*
X014335Y005807D01*
X014395Y005823D01*
X014456Y005836D01*
X014517Y005845D01*
X014579Y005850D01*
X014640Y005851D01*
X014702Y005848D01*
X014764Y005841D01*
X014825Y005830D01*
X014885Y005816D01*
X014944Y005797D01*
X015002Y005775D01*
X015058Y005749D01*
X015113Y005720D01*
X015166Y005688D01*
X015216Y005652D01*
X015264Y005613D01*
X015310Y005571D01*
X015352Y005526D01*
X015392Y005478D01*
X015429Y005428D01*
X015462Y005376D01*
X015493Y005322D01*
X015519Y005266D01*
X015542Y005209D01*
X015561Y005150D01*
X015577Y005090D01*
X015589Y005029D01*
X015597Y004968D01*
X015601Y004906D01*
X015601Y004844D01*
X015597Y004782D01*
X015589Y004721D01*
X015577Y004660D01*
X015561Y004600D01*
X015542Y004541D01*
X015519Y004484D01*
X015493Y004428D01*
X015462Y004374D01*
X015429Y004322D01*
X015392Y004272D01*
X015352Y004224D01*
X015310Y004179D01*
X015264Y004137D01*
X015216Y004098D01*
X015166Y004062D01*
X015113Y004030D01*
X015058Y004001D01*
X015002Y003975D01*
X014944Y003953D01*
X014885Y003934D01*
X014825Y003920D01*
X014764Y003909D01*
X014702Y003902D01*
X014640Y003899D01*
X014579Y003900D01*
X014517Y003905D01*
X014456Y003914D01*
X014395Y003927D01*
X014335Y003943D01*
X014277Y003963D01*
X014220Y003987D01*
X014164Y004015D01*
X014110Y004046D01*
X014059Y004080D01*
X014010Y004117D01*
X013963Y004158D01*
X013919Y004201D01*
X013877Y004248D01*
X013839Y004296D01*
X013804Y004347D01*
X013772Y004400D01*
X013744Y004456D01*
X013719Y004512D01*
X013698Y004570D01*
X013680Y004630D01*
X013667Y004690D01*
X013657Y004751D01*
X013651Y004813D01*
X013649Y004875D01*
X014125Y002875D02*
X013125Y002875D01*
X013125Y002471D01*
X013125Y002077D02*
X013125Y001673D01*
X013125Y001279D02*
X013125Y000875D01*
X014125Y000875D01*
X014125Y001279D01*
X014125Y001673D02*
X014125Y002077D01*
X014125Y002471D02*
X014125Y002875D01*
X010125Y002625D02*
X010127Y002669D01*
X010133Y002713D01*
X010143Y002756D01*
X010156Y002798D01*
X010173Y002839D01*
X010194Y002878D01*
X010218Y002915D01*
X010245Y002950D01*
X010275Y002982D01*
X010308Y003012D01*
X010344Y003038D01*
X010381Y003062D01*
X010421Y003081D01*
X010462Y003098D01*
X010505Y003110D01*
X010548Y003119D01*
X010592Y003124D01*
X010636Y003125D01*
X010680Y003122D01*
X010724Y003115D01*
X010767Y003104D01*
X010809Y003090D01*
X010849Y003072D01*
X010888Y003050D01*
X010924Y003026D01*
X010958Y002998D01*
X010990Y002967D01*
X011019Y002933D01*
X011045Y002897D01*
X011067Y002859D01*
X011086Y002819D01*
X011101Y002777D01*
X011113Y002735D01*
X011121Y002691D01*
X011125Y002647D01*
X011125Y002603D01*
X011121Y002559D01*
X011113Y002515D01*
X011101Y002473D01*
X011086Y002431D01*
X011067Y002391D01*
X011045Y002353D01*
X011019Y002317D01*
X010990Y002283D01*
X010958Y002252D01*
X010924Y002224D01*
X010888Y002200D01*
X010849Y002178D01*
X010809Y002160D01*
X010767Y002146D01*
X010724Y002135D01*
X010680Y002128D01*
X010636Y002125D01*
X010592Y002126D01*
X010548Y002131D01*
X010505Y002140D01*
X010462Y002152D01*
X010421Y002169D01*
X010381Y002188D01*
X010344Y002212D01*
X010308Y002238D01*
X010275Y002268D01*
X010245Y002300D01*
X010218Y002335D01*
X010194Y002372D01*
X010173Y002411D01*
X010156Y002452D01*
X010143Y002494D01*
X010133Y002537D01*
X010127Y002581D01*
X010125Y002625D01*
X008556Y002625D02*
X008558Y002727D01*
X008566Y002828D01*
X008578Y002929D01*
X008596Y003029D01*
X008618Y003128D01*
X008645Y003226D01*
X008677Y003322D01*
X008713Y003417D01*
X008755Y003510D01*
X008800Y003600D01*
X008850Y003689D01*
X008905Y003774D01*
X008963Y003858D01*
X009026Y003938D01*
X009092Y004014D01*
X009162Y004088D01*
X009236Y004158D01*
X009312Y004224D01*
X009392Y004287D01*
X009476Y004345D01*
X009561Y004400D01*
X009650Y004450D01*
X009740Y004495D01*
X009833Y004537D01*
X009928Y004573D01*
X010024Y004605D01*
X010122Y004632D01*
X010221Y004654D01*
X010321Y004672D01*
X010422Y004684D01*
X010523Y004692D01*
X010625Y004694D01*
X010727Y004692D01*
X010828Y004684D01*
X010929Y004672D01*
X011029Y004654D01*
X011128Y004632D01*
X011226Y004605D01*
X011322Y004573D01*
X011417Y004537D01*
X011510Y004495D01*
X011600Y004450D01*
X011689Y004400D01*
X011774Y004345D01*
X011858Y004287D01*
X011938Y004224D01*
X012014Y004158D01*
X012088Y004088D01*
X012158Y004014D01*
X012224Y003938D01*
X012287Y003858D01*
X012345Y003774D01*
X012400Y003689D01*
X012450Y003600D01*
X012495Y003510D01*
X012537Y003417D01*
X012573Y003322D01*
X012605Y003226D01*
X012632Y003128D01*
X012654Y003029D01*
X012672Y002929D01*
X012684Y002828D01*
X012692Y002727D01*
X012694Y002625D01*
X012692Y002523D01*
X012684Y002422D01*
X012672Y002321D01*
X012654Y002221D01*
X012632Y002122D01*
X012605Y002024D01*
X012573Y001928D01*
X012537Y001833D01*
X012495Y001740D01*
X012450Y001650D01*
X012400Y001561D01*
X012345Y001476D01*
X012287Y001392D01*
X012224Y001312D01*
X012158Y001236D01*
X012088Y001162D01*
X012014Y001092D01*
X011938Y001026D01*
X011858Y000963D01*
X011774Y000905D01*
X011689Y000850D01*
X011600Y000800D01*
X011510Y000755D01*
X011417Y000713D01*
X011322Y000677D01*
X011226Y000645D01*
X011128Y000618D01*
X011029Y000596D01*
X010929Y000578D01*
X010828Y000566D01*
X010727Y000558D01*
X010625Y000556D01*
X010523Y000558D01*
X010422Y000566D01*
X010321Y000578D01*
X010221Y000596D01*
X010122Y000618D01*
X010024Y000645D01*
X009928Y000677D01*
X009833Y000713D01*
X009740Y000755D01*
X009650Y000800D01*
X009561Y000850D01*
X009476Y000905D01*
X009392Y000963D01*
X009312Y001026D01*
X009236Y001092D01*
X009162Y001162D01*
X009092Y001236D01*
X009026Y001312D01*
X008963Y001392D01*
X008905Y001476D01*
X008850Y001561D01*
X008800Y001650D01*
X008755Y001740D01*
X008713Y001833D01*
X008677Y001928D01*
X008645Y002024D01*
X008618Y002122D01*
X008596Y002221D01*
X008578Y002321D01*
X008566Y002422D01*
X008558Y002523D01*
X008556Y002625D01*
X013649Y010375D02*
X013651Y010437D01*
X013657Y010499D01*
X013667Y010560D01*
X013680Y010620D01*
X013698Y010680D01*
X013719Y010738D01*
X013744Y010794D01*
X013772Y010850D01*
X013804Y010903D01*
X013839Y010954D01*
X013877Y011002D01*
X013919Y011049D01*
X013963Y011092D01*
X014010Y011133D01*
X014059Y011170D01*
X014110Y011204D01*
X014164Y011235D01*
X014220Y011263D01*
X014277Y011287D01*
X014335Y011307D01*
X014395Y011323D01*
X014456Y011336D01*
X014517Y011345D01*
X014579Y011350D01*
X014640Y011351D01*
X014702Y011348D01*
X014764Y011341D01*
X014825Y011330D01*
X014885Y011316D01*
X014944Y011297D01*
X015002Y011275D01*
X015058Y011249D01*
X015113Y011220D01*
X015166Y011188D01*
X015216Y011152D01*
X015264Y011113D01*
X015310Y011071D01*
X015352Y011026D01*
X015392Y010978D01*
X015429Y010928D01*
X015462Y010876D01*
X015493Y010822D01*
X015519Y010766D01*
X015542Y010709D01*
X015561Y010650D01*
X015577Y010590D01*
X015589Y010529D01*
X015597Y010468D01*
X015601Y010406D01*
X015601Y010344D01*
X015597Y010282D01*
X015589Y010221D01*
X015577Y010160D01*
X015561Y010100D01*
X015542Y010041D01*
X015519Y009984D01*
X015493Y009928D01*
X015462Y009874D01*
X015429Y009822D01*
X015392Y009772D01*
X015352Y009724D01*
X015310Y009679D01*
X015264Y009637D01*
X015216Y009598D01*
X015166Y009562D01*
X015113Y009530D01*
X015058Y009501D01*
X015002Y009475D01*
X014944Y009453D01*
X014885Y009434D01*
X014825Y009420D01*
X014764Y009409D01*
X014702Y009402D01*
X014640Y009399D01*
X014579Y009400D01*
X014517Y009405D01*
X014456Y009414D01*
X014395Y009427D01*
X014335Y009443D01*
X014277Y009463D01*
X014220Y009487D01*
X014164Y009515D01*
X014110Y009546D01*
X014059Y009580D01*
X014010Y009617D01*
X013963Y009658D01*
X013919Y009701D01*
X013877Y009748D01*
X013839Y009796D01*
X013804Y009847D01*
X013772Y009900D01*
X013744Y009956D01*
X013719Y010012D01*
X013698Y010070D01*
X013680Y010130D01*
X013667Y010190D01*
X013657Y010251D01*
X013651Y010313D01*
X013649Y010375D01*
X013375Y011750D02*
X013375Y013750D01*
X014375Y013750D01*
X014375Y011750D01*
X013375Y011750D01*
X012375Y011750D01*
X012375Y013750D01*
X013375Y013750D01*
X014375Y013750D02*
X015375Y013750D01*
X015375Y011750D01*
X014375Y011750D01*
X012375Y011750D02*
X011375Y011750D01*
X011375Y013750D01*
X012375Y013750D01*
X011375Y013750D02*
X010375Y013750D01*
X010375Y011750D01*
X009375Y011750D01*
X009375Y013750D01*
X010375Y013750D01*
X009375Y013750D02*
X008375Y013750D01*
X008375Y011750D01*
X007375Y011750D01*
X007375Y013750D01*
X008375Y013750D01*
X008375Y011750D02*
X009375Y011750D01*
X010375Y011750D02*
X011375Y011750D01*
X015649Y007625D02*
X015651Y007687D01*
X015657Y007749D01*
X015667Y007810D01*
X015680Y007870D01*
X015698Y007930D01*
X015719Y007988D01*
X015744Y008044D01*
X015772Y008100D01*
X015804Y008153D01*
X015839Y008204D01*
X015877Y008252D01*
X015919Y008299D01*
X015963Y008342D01*
X016010Y008383D01*
X016059Y008420D01*
X016110Y008454D01*
X016164Y008485D01*
X016220Y008513D01*
X016277Y008537D01*
X016335Y008557D01*
X016395Y008573D01*
X016456Y008586D01*
X016517Y008595D01*
X016579Y008600D01*
X016640Y008601D01*
X016702Y008598D01*
X016764Y008591D01*
X016825Y008580D01*
X016885Y008566D01*
X016944Y008547D01*
X017002Y008525D01*
X017058Y008499D01*
X017113Y008470D01*
X017166Y008438D01*
X017216Y008402D01*
X017264Y008363D01*
X017310Y008321D01*
X017352Y008276D01*
X017392Y008228D01*
X017429Y008178D01*
X017462Y008126D01*
X017493Y008072D01*
X017519Y008016D01*
X017542Y007959D01*
X017561Y007900D01*
X017577Y007840D01*
X017589Y007779D01*
X017597Y007718D01*
X017601Y007656D01*
X017601Y007594D01*
X017597Y007532D01*
X017589Y007471D01*
X017577Y007410D01*
X017561Y007350D01*
X017542Y007291D01*
X017519Y007234D01*
X017493Y007178D01*
X017462Y007124D01*
X017429Y007072D01*
X017392Y007022D01*
X017352Y006974D01*
X017310Y006929D01*
X017264Y006887D01*
X017216Y006848D01*
X017166Y006812D01*
X017113Y006780D01*
X017058Y006751D01*
X017002Y006725D01*
X016944Y006703D01*
X016885Y006684D01*
X016825Y006670D01*
X016764Y006659D01*
X016702Y006652D01*
X016640Y006649D01*
X016579Y006650D01*
X016517Y006655D01*
X016456Y006664D01*
X016395Y006677D01*
X016335Y006693D01*
X016277Y006713D01*
X016220Y006737D01*
X016164Y006765D01*
X016110Y006796D01*
X016059Y006830D01*
X016010Y006867D01*
X015963Y006908D01*
X015919Y006951D01*
X015877Y006998D01*
X015839Y007046D01*
X015804Y007097D01*
X015772Y007150D01*
X015744Y007206D01*
X015719Y007262D01*
X015698Y007320D01*
X015680Y007380D01*
X015667Y007440D01*
X015657Y007501D01*
X015651Y007563D01*
X015649Y007625D01*
X005125Y012000D02*
X005171Y011956D01*
X005221Y011915D01*
X005272Y011877D01*
X005326Y011842D01*
X005382Y011811D01*
X005440Y011782D01*
X005499Y011758D01*
X005559Y011737D01*
X005621Y011720D01*
X005684Y011706D01*
X005747Y011697D01*
X005811Y011691D01*
X005875Y011689D01*
X005939Y011691D01*
X006003Y011697D01*
X006066Y011706D01*
X006129Y011720D01*
X006191Y011737D01*
X006251Y011758D01*
X006310Y011782D01*
X006368Y011811D01*
X006424Y011842D01*
X006478Y011877D01*
X006529Y011915D01*
X006579Y011956D01*
X006625Y012000D01*
X006669Y012046D01*
X006710Y012096D01*
X006748Y012147D01*
X006783Y012201D01*
X006814Y012257D01*
X006843Y012315D01*
X006867Y012374D01*
X006888Y012434D01*
X006905Y012496D01*
X006919Y012559D01*
X006928Y012622D01*
X006934Y012686D01*
X006936Y012750D01*
X006934Y012814D01*
X006928Y012878D01*
X006919Y012941D01*
X006905Y013004D01*
X006888Y013066D01*
X006867Y013126D01*
X006843Y013185D01*
X006814Y013243D01*
X006783Y013299D01*
X006748Y013353D01*
X006710Y013404D01*
X006669Y013454D01*
X006625Y013500D01*
X006579Y013544D01*
X006529Y013585D01*
X006478Y013623D01*
X006424Y013658D01*
X006368Y013689D01*
X006310Y013718D01*
X006251Y013742D01*
X006191Y013763D01*
X006129Y013780D01*
X006066Y013794D01*
X006003Y013803D01*
X005939Y013809D01*
X005875Y013811D01*
X005811Y013809D01*
X005747Y013803D01*
X005684Y013794D01*
X005621Y013780D01*
X005559Y013763D01*
X005499Y013742D01*
X005440Y013718D01*
X005382Y013689D01*
X005326Y013658D01*
X005272Y013623D01*
X005221Y013585D01*
X005171Y013544D01*
X005125Y013500D01*
X005125Y012000D01*
X002500Y017375D02*
X001500Y017375D01*
X001500Y017779D01*
X001500Y018173D02*
X001500Y018577D01*
X001500Y018971D02*
X001500Y019375D01*
X002500Y019375D01*
X002500Y018971D01*
X002500Y018577D02*
X002500Y018173D01*
X002500Y017779D02*
X002500Y017375D01*
X000774Y022375D02*
X000776Y022437D01*
X000782Y022499D01*
X000792Y022560D01*
X000805Y022620D01*
X000823Y022680D01*
X000844Y022738D01*
X000869Y022794D01*
X000897Y022850D01*
X000929Y022903D01*
X000964Y022954D01*
X001002Y023002D01*
X001044Y023049D01*
X001088Y023092D01*
X001135Y023133D01*
X001184Y023170D01*
X001235Y023204D01*
X001289Y023235D01*
X001345Y023263D01*
X001402Y023287D01*
X001460Y023307D01*
X001520Y023323D01*
X001581Y023336D01*
X001642Y023345D01*
X001704Y023350D01*
X001765Y023351D01*
X001827Y023348D01*
X001889Y023341D01*
X001950Y023330D01*
X002010Y023316D01*
X002069Y023297D01*
X002127Y023275D01*
X002183Y023249D01*
X002238Y023220D01*
X002291Y023188D01*
X002341Y023152D01*
X002389Y023113D01*
X002435Y023071D01*
X002477Y023026D01*
X002517Y022978D01*
X002554Y022928D01*
X002587Y022876D01*
X002618Y022822D01*
X002644Y022766D01*
X002667Y022709D01*
X002686Y022650D01*
X002702Y022590D01*
X002714Y022529D01*
X002722Y022468D01*
X002726Y022406D01*
X002726Y022344D01*
X002722Y022282D01*
X002714Y022221D01*
X002702Y022160D01*
X002686Y022100D01*
X002667Y022041D01*
X002644Y021984D01*
X002618Y021928D01*
X002587Y021874D01*
X002554Y021822D01*
X002517Y021772D01*
X002477Y021724D01*
X002435Y021679D01*
X002389Y021637D01*
X002341Y021598D01*
X002291Y021562D01*
X002238Y021530D01*
X002183Y021501D01*
X002127Y021475D01*
X002069Y021453D01*
X002010Y021434D01*
X001950Y021420D01*
X001889Y021409D01*
X001827Y021402D01*
X001765Y021399D01*
X001704Y021400D01*
X001642Y021405D01*
X001581Y021414D01*
X001520Y021427D01*
X001460Y021443D01*
X001402Y021463D01*
X001345Y021487D01*
X001289Y021515D01*
X001235Y021546D01*
X001184Y021580D01*
X001135Y021617D01*
X001088Y021658D01*
X001044Y021701D01*
X001002Y021748D01*
X000964Y021796D01*
X000929Y021847D01*
X000897Y021900D01*
X000869Y021956D01*
X000844Y022012D01*
X000823Y022070D01*
X000805Y022130D01*
X000792Y022190D01*
X000782Y022251D01*
X000776Y022313D01*
X000774Y022375D01*
D11*
X003625Y022453D02*
X003625Y022054D01*
X003625Y021660D02*
X003625Y021261D01*
X003625Y020868D02*
X003625Y020468D01*
X003625Y020075D02*
X003625Y019675D01*
X003625Y019282D02*
X003625Y018882D01*
X003625Y018489D02*
X003625Y018090D01*
X003625Y017696D02*
X003625Y017297D01*
X003625Y016903D02*
X003625Y016504D01*
X003625Y016110D02*
X003625Y015711D01*
X003625Y015317D02*
X003625Y014918D01*
X003625Y014524D02*
X003625Y014125D01*
X004241Y014125D01*
X004634Y014125D02*
X005250Y014125D01*
X003625Y022847D02*
X003625Y023246D01*
X003625Y023640D02*
X003625Y024039D01*
X003625Y024433D02*
X003625Y024832D01*
X003625Y025226D02*
X003625Y025625D01*
X003625Y026625D02*
X003625Y026875D01*
X004031Y026875D01*
X004425Y026875D02*
X004831Y026875D01*
X005224Y026875D02*
X005630Y026875D01*
X006024Y026875D02*
X006430Y026875D01*
X006824Y026875D02*
X007230Y026875D01*
X007623Y026875D02*
X008029Y026875D01*
X008423Y026875D02*
X008829Y026875D01*
X009223Y026875D02*
X009628Y026875D01*
X010022Y026875D02*
X010428Y026875D01*
X010822Y026875D02*
X011228Y026875D01*
X011622Y026875D02*
X012027Y026875D01*
X012421Y026875D02*
X012827Y026875D01*
X013221Y026875D02*
X013627Y026875D01*
X014020Y026875D02*
X014426Y026875D01*
X014820Y026875D02*
X015226Y026875D01*
X015620Y026875D02*
X016026Y026875D01*
X016419Y026875D02*
X016825Y026875D01*
X017219Y026875D02*
X017625Y026875D01*
X017625Y026625D01*
X017625Y025500D02*
X017625Y025067D01*
X017625Y024673D02*
X017625Y024240D01*
X017625Y023846D02*
X017625Y023413D01*
X017625Y023019D02*
X017625Y022586D01*
X017625Y022193D02*
X017625Y021759D01*
X017625Y021366D02*
X017625Y020932D01*
X017625Y020539D02*
X017625Y020106D01*
X017625Y019712D02*
X017625Y019279D01*
X017625Y018885D02*
X017625Y018452D01*
X017625Y018058D02*
X017625Y017625D01*
X017625Y016500D02*
X017625Y015971D01*
X017625Y015577D02*
X017625Y015048D01*
X017625Y014654D02*
X017625Y014125D01*
X017072Y014125D01*
X016678Y014125D02*
X016125Y014125D01*
D12*
X014750Y014000D02*
X013125Y014000D01*
X013105Y014002D01*
X013086Y014006D01*
X013068Y014014D01*
X013052Y014024D01*
X013037Y014037D01*
X013024Y014052D01*
X013014Y014068D01*
X013006Y014086D01*
X013002Y014105D01*
X013000Y014125D01*
X014750Y014000D02*
X014770Y013998D01*
X014789Y013994D01*
X014807Y013986D01*
X014823Y013976D01*
X014838Y013963D01*
X014851Y013948D01*
X014861Y013932D01*
X014869Y013914D01*
X014873Y013895D01*
X014875Y013875D01*
X009500Y014000D02*
X008000Y014000D01*
X007980Y013998D01*
X007961Y013994D01*
X007943Y013986D01*
X007927Y013976D01*
X007912Y013963D01*
X007899Y013948D01*
X007889Y013932D01*
X007881Y013914D01*
X007877Y013895D01*
X007875Y013875D01*
X009500Y014000D02*
X009520Y014002D01*
X009539Y014006D01*
X009557Y014014D01*
X009573Y014024D01*
X009588Y014037D01*
X009601Y014052D01*
X009611Y014068D01*
X009619Y014086D01*
X009623Y014105D01*
X009625Y014125D01*
X007434Y008636D02*
X007434Y008025D01*
X007129Y008025D01*
X007027Y008127D01*
X007027Y008330D01*
X007129Y008432D01*
X007434Y008432D01*
X006826Y008330D02*
X006826Y008025D01*
X006521Y008025D01*
X006419Y008127D01*
X006521Y008229D01*
X006826Y008229D01*
X006826Y008330D02*
X006725Y008432D01*
X006521Y008432D01*
X006219Y008330D02*
X006117Y008229D01*
X005812Y008229D01*
X005812Y008025D02*
X005812Y008636D01*
X006117Y008636D01*
X006219Y008534D01*
X006219Y008330D01*
X005609Y008127D02*
X005609Y008025D01*
X005508Y008025D01*
X005508Y008127D01*
X005609Y008127D01*
X005307Y008127D02*
X005307Y008534D01*
X005205Y008636D01*
X004900Y008636D01*
X004900Y008025D01*
X005205Y008025D01*
X005307Y008127D01*
D13*
X005625Y002780D02*
X005625Y002710D01*
X005625Y002570D02*
X005625Y002290D01*
X005555Y002290D02*
X005695Y002290D01*
X005862Y002360D02*
X005932Y002290D01*
X006072Y002290D01*
X006142Y002360D01*
X006142Y002500D01*
X006072Y002570D01*
X005932Y002570D01*
X005862Y002500D01*
X005862Y002360D01*
X005625Y002570D02*
X005555Y002570D01*
X005375Y002570D02*
X005165Y002570D01*
X005094Y002500D01*
X005165Y002430D01*
X005305Y002430D01*
X005375Y002360D01*
X005305Y002290D01*
X005094Y002290D01*
X004921Y002570D02*
X004851Y002570D01*
X004711Y002430D01*
X004711Y002290D02*
X004711Y002570D01*
X004531Y002500D02*
X004531Y002430D01*
X004250Y002430D01*
X004250Y002360D02*
X004250Y002500D01*
X004320Y002570D01*
X004461Y002570D01*
X004531Y002500D01*
X004461Y002290D02*
X004320Y002290D01*
X004250Y002360D01*
X004070Y002570D02*
X003930Y002290D01*
X003790Y002570D01*
X004790Y001820D02*
X004930Y001960D01*
X004930Y001540D01*
X004790Y001540D02*
X005070Y001540D01*
X005250Y001540D02*
X005320Y001540D01*
X005320Y001610D01*
X005250Y001610D01*
X005250Y001540D01*
X005481Y001610D02*
X005481Y001890D01*
X005551Y001960D01*
X005691Y001960D01*
X005761Y001890D01*
X005481Y001610D01*
X005551Y001540D01*
X005691Y001540D01*
X005761Y001610D01*
X005761Y001890D01*
X006322Y002290D02*
X006322Y002570D01*
X006532Y002570D01*
X006602Y002500D01*
X006602Y002290D01*
D14*
X007097Y003020D02*
X007173Y003020D01*
X007250Y003097D01*
X007250Y003480D01*
X007173Y003480D02*
X007327Y003480D01*
X007480Y003480D02*
X007711Y003480D01*
X007787Y003404D01*
X007787Y003250D01*
X007711Y003173D01*
X007480Y003173D01*
X007480Y003020D02*
X007480Y003480D01*
X007941Y003327D02*
X008094Y003480D01*
X008094Y003020D01*
X007941Y003020D02*
X008248Y003020D01*
X007097Y003020D02*
X007020Y003097D01*
X009270Y001904D02*
X009270Y001827D01*
X009347Y001750D01*
X009500Y001750D01*
X009577Y001673D01*
X009577Y001597D01*
X009500Y001520D01*
X009347Y001520D01*
X009270Y001597D01*
X009270Y001904D02*
X009347Y001980D01*
X009500Y001980D01*
X009577Y001904D01*
X009730Y001827D02*
X009961Y001827D01*
X010037Y001750D01*
X010037Y001597D01*
X009961Y001520D01*
X009730Y001520D01*
X009730Y001367D02*
X009730Y001827D01*
X010191Y001750D02*
X010191Y001597D01*
X010268Y001520D01*
X010421Y001520D01*
X010498Y001673D02*
X010191Y001673D01*
X010191Y001750D02*
X010268Y001827D01*
X010421Y001827D01*
X010498Y001750D01*
X010498Y001673D01*
X010651Y001597D02*
X010728Y001673D01*
X010958Y001673D01*
X010958Y001750D02*
X010958Y001520D01*
X010728Y001520D01*
X010651Y001597D01*
X010728Y001827D02*
X010881Y001827D01*
X010958Y001750D01*
X011112Y001673D02*
X011342Y001827D01*
X011495Y001750D02*
X011572Y001827D01*
X011725Y001827D01*
X011802Y001750D01*
X011802Y001673D01*
X011495Y001673D01*
X011495Y001597D02*
X011495Y001750D01*
X011495Y001597D02*
X011572Y001520D01*
X011725Y001520D01*
X011956Y001520D02*
X011956Y001827D01*
X012109Y001827D02*
X011956Y001673D01*
X012109Y001827D02*
X012186Y001827D01*
X011342Y001520D02*
X011112Y001673D01*
X011112Y001520D02*
X011112Y001980D01*
X013020Y003097D02*
X013097Y003020D01*
X013173Y003020D01*
X013250Y003097D01*
X013250Y003480D01*
X013173Y003480D02*
X013327Y003480D01*
X013480Y003480D02*
X013711Y003480D01*
X013787Y003404D01*
X013787Y003250D01*
X013711Y003173D01*
X013480Y003173D01*
X013480Y003020D02*
X013480Y003480D01*
X013941Y003404D02*
X014018Y003480D01*
X014171Y003480D01*
X014248Y003404D01*
X014248Y003327D01*
X013941Y003020D01*
X014248Y003020D01*
X014347Y004645D02*
X014270Y004722D01*
X014347Y004645D02*
X014500Y004645D01*
X014577Y004722D01*
X014577Y004798D01*
X014500Y004875D01*
X014347Y004875D01*
X014270Y004952D01*
X014270Y005029D01*
X014347Y005105D01*
X014500Y005105D01*
X014577Y005029D01*
X014730Y004875D02*
X015037Y004875D01*
X014961Y004645D02*
X014961Y005105D01*
X014730Y004875D01*
X016347Y007395D02*
X016270Y007472D01*
X016347Y007395D02*
X016500Y007395D01*
X016577Y007472D01*
X016577Y007548D01*
X016500Y007625D01*
X016347Y007625D01*
X016270Y007702D01*
X016270Y007779D01*
X016347Y007855D01*
X016500Y007855D01*
X016577Y007779D01*
X016730Y007779D02*
X016807Y007855D01*
X016961Y007855D01*
X017037Y007779D01*
X017037Y007702D01*
X016730Y007395D01*
X017037Y007395D01*
X015037Y010145D02*
X014730Y010145D01*
X014884Y010145D02*
X014884Y010605D01*
X014730Y010452D01*
X014577Y010529D02*
X014500Y010605D01*
X014347Y010605D01*
X014270Y010529D01*
X014270Y010452D01*
X014347Y010375D01*
X014500Y010375D01*
X014577Y010298D01*
X014577Y010222D01*
X014500Y010145D01*
X014347Y010145D01*
X014270Y010222D01*
X012961Y007855D02*
X012807Y007855D01*
X012730Y007779D01*
X012577Y007779D02*
X012500Y007855D01*
X012347Y007855D01*
X012270Y007779D01*
X012270Y007702D01*
X012347Y007625D01*
X012500Y007625D01*
X012577Y007548D01*
X012577Y007472D01*
X012500Y007395D01*
X012347Y007395D01*
X012270Y007472D01*
X012730Y007472D02*
X012807Y007395D01*
X012961Y007395D01*
X013037Y007472D01*
X013037Y007548D01*
X012961Y007625D01*
X012884Y007625D01*
X012961Y007625D02*
X013037Y007702D01*
X013037Y007779D01*
X012961Y007855D01*
X012278Y006123D02*
X012202Y006123D01*
X012125Y006046D01*
X012125Y005969D01*
X012125Y006046D02*
X012048Y006123D01*
X011971Y006123D01*
X011895Y006046D01*
X011895Y005893D01*
X011971Y005816D01*
X011971Y005662D02*
X012125Y005662D01*
X012202Y005586D01*
X012202Y005355D01*
X012355Y005355D02*
X011895Y005355D01*
X011895Y005586D01*
X011971Y005662D01*
X012278Y005816D02*
X012355Y005893D01*
X012355Y006046D01*
X012278Y006123D01*
X011895Y005202D02*
X011895Y005048D01*
X011895Y005125D02*
X012278Y005125D01*
X012355Y005048D01*
X012355Y004972D01*
X012278Y004895D01*
X010605Y008270D02*
X010145Y008270D01*
X010145Y008500D01*
X010221Y008577D01*
X010375Y008577D01*
X010452Y008500D01*
X010452Y008270D01*
X010452Y008423D02*
X010605Y008577D01*
X010605Y008730D02*
X010605Y009037D01*
X010605Y008884D02*
X010145Y008884D01*
X010298Y008730D01*
X009605Y008730D02*
X009298Y009037D01*
X009221Y009037D01*
X009145Y008961D01*
X009145Y008807D01*
X009221Y008730D01*
X009221Y008577D02*
X009375Y008577D01*
X009452Y008500D01*
X009452Y008270D01*
X009605Y008270D02*
X009145Y008270D01*
X009145Y008500D01*
X009221Y008577D01*
X009452Y008423D02*
X009605Y008577D01*
X009605Y008730D02*
X009605Y009037D01*
X009847Y013895D02*
X009770Y013972D01*
X009770Y014279D01*
X009847Y014355D01*
X010000Y014355D01*
X010077Y014279D01*
X010230Y014202D02*
X010384Y014355D01*
X010384Y013895D01*
X010537Y013895D02*
X010230Y013895D01*
X010077Y013972D02*
X010000Y013895D01*
X009847Y013895D01*
X011151Y014125D02*
X011458Y014125D01*
X012072Y013972D02*
X012149Y013895D01*
X012302Y013895D01*
X012379Y013972D01*
X012532Y013972D02*
X012532Y014048D01*
X012609Y014125D01*
X012763Y014125D01*
X012839Y014048D01*
X012839Y013972D01*
X012763Y013895D01*
X012609Y013895D01*
X012532Y013972D01*
X012609Y014125D02*
X012532Y014202D01*
X012532Y014279D01*
X012609Y014355D01*
X012763Y014355D01*
X012839Y014279D01*
X012839Y014202D01*
X012763Y014125D01*
X012379Y014279D02*
X012302Y014355D01*
X012149Y014355D01*
X012072Y014279D01*
X012072Y013972D01*
X012145Y017270D02*
X012452Y017270D01*
X012605Y017270D02*
X012912Y017270D01*
X013066Y017270D02*
X013296Y017270D01*
X013373Y017347D01*
X013373Y017654D01*
X013296Y017730D01*
X013066Y017730D01*
X013066Y017270D01*
X012759Y017500D02*
X012605Y017500D01*
X012605Y017730D02*
X012605Y017270D01*
X012145Y017270D02*
X012145Y017730D01*
X012605Y017730D02*
X012912Y017730D01*
X013526Y017654D02*
X013603Y017730D01*
X013756Y017730D01*
X013833Y017654D01*
X013833Y017577D01*
X013526Y017270D01*
X013833Y017270D01*
X015520Y017270D02*
X015827Y017270D01*
X015980Y017270D02*
X016287Y017270D01*
X016441Y017270D02*
X016671Y017270D01*
X016748Y017347D01*
X016748Y017654D01*
X016671Y017730D01*
X016441Y017730D01*
X016441Y017270D01*
X016134Y017500D02*
X015980Y017500D01*
X015980Y017730D02*
X015980Y017270D01*
X015520Y017270D02*
X015520Y017730D01*
X015980Y017730D02*
X016287Y017730D01*
X016901Y017577D02*
X017055Y017730D01*
X017055Y017270D01*
X017208Y017270D02*
X016901Y017270D01*
X009708Y017347D02*
X009631Y017270D01*
X009478Y017270D01*
X009401Y017347D01*
X009248Y017347D02*
X009171Y017270D01*
X008941Y017270D01*
X008941Y017730D01*
X009171Y017730D01*
X009248Y017654D01*
X009248Y017347D01*
X009555Y017500D02*
X009631Y017500D01*
X009708Y017423D01*
X009708Y017347D01*
X009631Y017500D02*
X009708Y017577D01*
X009708Y017654D01*
X009631Y017730D01*
X009478Y017730D01*
X009401Y017654D01*
X008787Y017730D02*
X008480Y017730D01*
X008480Y017270D01*
X008787Y017270D01*
X008634Y017500D02*
X008480Y017500D01*
X008327Y017270D02*
X008020Y017270D01*
X008020Y017730D01*
X005583Y017500D02*
X005276Y017500D01*
X005506Y017730D01*
X005506Y017270D01*
X005123Y017347D02*
X005123Y017654D01*
X005046Y017730D01*
X004816Y017730D01*
X004816Y017270D01*
X005046Y017270D01*
X005123Y017347D01*
X004662Y017270D02*
X004355Y017270D01*
X004355Y017730D01*
X004662Y017730D01*
X004509Y017500D02*
X004355Y017500D01*
X004202Y017270D02*
X003895Y017270D01*
X003895Y017730D01*
X002546Y016355D02*
X002316Y016125D01*
X002623Y016125D01*
X002546Y015895D02*
X002546Y016355D01*
X002162Y016279D02*
X002162Y016125D01*
X002086Y016048D01*
X001855Y016048D01*
X001855Y015895D02*
X001855Y016355D01*
X002086Y016355D01*
X002162Y016279D01*
X001702Y016355D02*
X001548Y016355D01*
X001625Y016355D02*
X001625Y015972D01*
X001548Y015895D01*
X001472Y015895D01*
X001395Y015972D01*
X001230Y016645D02*
X001230Y016875D01*
X001153Y016952D01*
X001000Y016952D01*
X000923Y016875D01*
X000923Y016645D01*
X000770Y016645D02*
X001230Y016645D01*
X001153Y017105D02*
X001077Y017182D01*
X001077Y017412D01*
X001000Y017412D02*
X001230Y017412D01*
X001230Y017182D01*
X001153Y017105D01*
X000923Y017182D02*
X000923Y017336D01*
X001000Y017412D01*
X001000Y017566D02*
X001153Y017566D01*
X001230Y017643D01*
X001230Y017873D01*
X001230Y018026D02*
X000770Y018026D01*
X000923Y017873D02*
X000923Y017643D01*
X001000Y017566D01*
X001077Y018026D02*
X000923Y018256D01*
X000770Y018410D02*
X000770Y018487D01*
X001230Y018487D01*
X001230Y018563D02*
X001230Y018410D01*
X001230Y018256D02*
X001077Y018026D01*
X001230Y018717D02*
X001230Y018870D01*
X001230Y018793D02*
X000923Y018793D01*
X000923Y018717D01*
X000770Y018793D02*
X000693Y018793D01*
X001000Y019024D02*
X001153Y019024D01*
X001230Y019100D01*
X001230Y019331D01*
X001307Y019331D02*
X000923Y019331D01*
X000923Y019100D01*
X001000Y019024D01*
X001307Y019331D02*
X001383Y019254D01*
X001383Y019177D01*
X001230Y019484D02*
X000770Y019484D01*
X000923Y019561D02*
X000923Y019714D01*
X001000Y019791D01*
X001230Y019791D01*
X001153Y020021D02*
X001230Y020098D01*
X001153Y020021D02*
X000846Y020021D01*
X000923Y019944D02*
X000923Y020098D01*
X000923Y019561D02*
X001000Y019484D01*
X001347Y022145D02*
X001270Y022222D01*
X001347Y022145D02*
X001500Y022145D01*
X001577Y022222D01*
X001577Y022298D01*
X001500Y022375D01*
X001347Y022375D01*
X001270Y022452D01*
X001270Y022529D01*
X001347Y022605D01*
X001500Y022605D01*
X001577Y022529D01*
X001730Y022605D02*
X001730Y022375D01*
X001884Y022452D01*
X001961Y022452D01*
X002037Y022375D01*
X002037Y022222D01*
X001961Y022145D01*
X001807Y022145D01*
X001730Y022222D01*
X001730Y022605D02*
X002037Y022605D01*
X001969Y024145D02*
X001739Y024145D01*
X001816Y024298D02*
X001739Y024375D01*
X001816Y024452D01*
X002046Y024452D01*
X002199Y024375D02*
X002276Y024452D01*
X002430Y024452D01*
X002506Y024375D01*
X002506Y024298D01*
X002199Y024298D01*
X002199Y024222D02*
X002199Y024375D01*
X002199Y024222D02*
X002276Y024145D01*
X002430Y024145D01*
X002737Y024222D02*
X002813Y024145D01*
X002737Y024222D02*
X002737Y024529D01*
X002660Y024452D02*
X002813Y024452D01*
X002046Y024222D02*
X001969Y024145D01*
X002046Y024222D02*
X001969Y024298D01*
X001816Y024298D01*
X001586Y024298D02*
X001279Y024298D01*
X001279Y024222D02*
X001279Y024375D01*
X001355Y024452D01*
X001509Y024452D01*
X001586Y024375D01*
X001586Y024298D01*
X001509Y024145D02*
X001355Y024145D01*
X001279Y024222D01*
X001125Y024452D02*
X001048Y024452D01*
X000895Y024298D01*
X000895Y024145D02*
X000895Y024452D01*
X005597Y014480D02*
X005750Y014480D01*
X005827Y014404D01*
X005827Y014097D01*
X005750Y014020D01*
X005597Y014020D01*
X005520Y014097D01*
X005520Y014404D01*
X005597Y014480D01*
X005673Y014173D02*
X005827Y014020D01*
X005980Y014020D02*
X006287Y014020D01*
X006134Y014020D02*
X006134Y014480D01*
X005980Y014327D01*
D15*
X003817Y004300D02*
X003550Y004300D01*
X003550Y004700D01*
X004010Y004634D02*
X004010Y004367D01*
X004077Y004300D01*
X004211Y004300D01*
X004277Y004367D01*
X004471Y004300D02*
X004671Y004300D01*
X004738Y004367D01*
X004738Y004634D01*
X004671Y004700D01*
X004471Y004700D01*
X004471Y004300D01*
X004510Y004075D02*
X004510Y003675D01*
X004510Y003875D02*
X004577Y003942D01*
X004711Y003942D01*
X004777Y003875D01*
X004777Y003675D01*
X004971Y003675D02*
X005104Y003675D01*
X005038Y003675D02*
X005038Y003942D01*
X004971Y003942D01*
X005038Y004075D02*
X005038Y004142D01*
X004931Y004300D02*
X005198Y004700D01*
X005392Y004634D02*
X005392Y004367D01*
X005458Y004300D01*
X005592Y004300D01*
X005658Y004367D01*
X005658Y004500D01*
X005525Y004500D01*
X005392Y004634D02*
X005458Y004700D01*
X005592Y004700D01*
X005658Y004634D01*
X005919Y004433D02*
X005852Y004367D01*
X005919Y004300D01*
X006119Y004300D01*
X006119Y004500D01*
X006052Y004567D01*
X005919Y004567D01*
X005919Y004433D02*
X006119Y004433D01*
X006312Y004300D02*
X006312Y004567D01*
X006379Y004567D01*
X006446Y004500D01*
X006513Y004567D01*
X006579Y004500D01*
X006579Y004300D01*
X006446Y004300D02*
X006446Y004500D01*
X006773Y004500D02*
X006773Y004367D01*
X006839Y004300D01*
X006973Y004300D01*
X007040Y004433D02*
X006773Y004433D01*
X006773Y004500D02*
X006839Y004567D01*
X006973Y004567D01*
X007040Y004500D01*
X007040Y004433D01*
X006312Y004075D02*
X006312Y003675D01*
X006112Y003675D01*
X006045Y003742D01*
X006045Y003875D01*
X006112Y003942D01*
X006312Y003942D01*
X005872Y003675D02*
X005738Y003675D01*
X005805Y003675D02*
X005805Y004075D01*
X005738Y004075D01*
X005545Y003875D02*
X005545Y003808D01*
X005278Y003808D01*
X005278Y003742D02*
X005278Y003875D01*
X005344Y003942D01*
X005478Y003942D01*
X005545Y003875D01*
X005478Y003675D02*
X005344Y003675D01*
X005278Y003742D01*
X004317Y003742D02*
X004250Y003675D01*
X004117Y003675D01*
X004050Y003742D01*
X004117Y003875D02*
X004250Y003875D01*
X004317Y003808D01*
X004317Y003742D01*
X004117Y003875D02*
X004050Y003942D01*
X004050Y004009D01*
X004117Y004075D01*
X004250Y004075D01*
X004317Y004009D01*
X004277Y004634D02*
X004211Y004700D01*
X004077Y004700D01*
X004010Y004634D01*
D16*
X005994Y016887D02*
X005994Y017314D01*
X006207Y017100D02*
X005780Y017100D01*
X009905Y017100D02*
X010332Y017100D01*
X010119Y017314D02*
X010119Y016887D01*
X014030Y017100D02*
X014457Y017100D01*
X014244Y017314D02*
X014244Y016887D01*
X017405Y017100D02*
X017832Y017100D01*
X017619Y017314D02*
X017619Y016887D01*
X017691Y025816D02*
X017798Y025816D01*
X017905Y025923D01*
X017905Y026457D01*
X017905Y026030D02*
X017584Y026030D01*
X017478Y026137D01*
X017478Y026457D01*
X017260Y026350D02*
X017153Y026457D01*
X016833Y026457D01*
X016833Y026671D02*
X016833Y026030D01*
X017153Y026030D01*
X017260Y026137D01*
X017260Y026350D01*
X016616Y026350D02*
X016616Y026030D01*
X016402Y026030D02*
X016402Y026350D01*
X016509Y026457D01*
X016616Y026350D01*
X016402Y026350D02*
X016295Y026457D01*
X016189Y026457D01*
X016189Y026030D01*
X015971Y026030D02*
X015971Y026350D01*
X015864Y026457D01*
X015651Y026457D01*
X015651Y026244D02*
X015971Y026244D01*
X015971Y026030D02*
X015651Y026030D01*
X015544Y026137D01*
X015651Y026244D01*
X015327Y026457D02*
X015327Y025923D01*
X015220Y025816D01*
X015113Y025816D01*
X015006Y026030D02*
X015327Y026030D01*
X015006Y026030D02*
X014899Y026137D01*
X014899Y026350D01*
X015006Y026457D01*
X015327Y026457D01*
X014682Y026671D02*
X014255Y026030D01*
X014037Y026030D02*
X014037Y026350D01*
X013931Y026457D01*
X013824Y026350D01*
X013824Y026030D01*
X013610Y026030D02*
X013610Y026457D01*
X013717Y026457D01*
X013824Y026350D01*
X013393Y026350D02*
X013286Y026457D01*
X013073Y026457D01*
X012966Y026350D01*
X012966Y026137D01*
X013073Y026030D01*
X013286Y026030D01*
X013393Y026137D01*
X013393Y026350D01*
X012748Y026457D02*
X012428Y026457D01*
X012321Y026350D01*
X012321Y026137D01*
X012428Y026030D01*
X012748Y026030D01*
X012106Y026030D02*
X011999Y026030D01*
X011999Y026137D01*
X012106Y026137D01*
X012106Y026030D01*
X011781Y026137D02*
X011781Y026350D01*
X011675Y026457D01*
X011461Y026457D01*
X011354Y026350D01*
X011354Y026137D01*
X011461Y026030D01*
X011675Y026030D01*
X011781Y026137D01*
X011138Y026457D02*
X011031Y026457D01*
X010817Y026244D01*
X010817Y026457D02*
X010817Y026030D01*
X010600Y026244D02*
X010173Y026244D01*
X010173Y026350D02*
X010280Y026457D01*
X010493Y026457D01*
X010600Y026350D01*
X010600Y026244D01*
X010493Y026030D02*
X010280Y026030D01*
X010173Y026137D01*
X010173Y026350D01*
X009955Y026457D02*
X009528Y026030D01*
X009955Y026030D01*
X009955Y026457D02*
X009528Y026457D01*
X009205Y026671D02*
X009205Y026030D01*
X009099Y026030D02*
X009312Y026030D01*
X008881Y026030D02*
X008561Y026030D01*
X008454Y026137D01*
X008561Y026244D01*
X008881Y026244D01*
X008881Y026350D02*
X008881Y026030D01*
X008881Y026350D02*
X008774Y026457D01*
X008561Y026457D01*
X008236Y026457D02*
X007916Y026457D01*
X007809Y026350D01*
X007809Y026137D01*
X007916Y026030D01*
X008236Y026030D01*
X007593Y026030D02*
X007380Y026030D01*
X007486Y026030D02*
X007486Y026457D01*
X007380Y026457D01*
X007162Y026457D02*
X006842Y026457D01*
X006735Y026350D01*
X006735Y026137D01*
X006842Y026030D01*
X007162Y026030D01*
X007162Y025923D02*
X007162Y026457D01*
X007486Y026671D02*
X007486Y026777D01*
X007162Y025923D02*
X007055Y025816D01*
X006949Y025816D01*
X006518Y026137D02*
X006518Y026350D01*
X006411Y026457D01*
X006197Y026457D01*
X006091Y026350D01*
X006091Y026137D01*
X006197Y026030D01*
X006411Y026030D01*
X006518Y026137D01*
X005874Y026030D02*
X005661Y026030D01*
X005768Y026030D02*
X005768Y026671D01*
X005661Y026671D01*
X005445Y026137D02*
X005445Y026030D01*
X005339Y026030D01*
X005339Y026137D01*
X005445Y026137D01*
X005121Y026137D02*
X005014Y026030D01*
X004908Y026137D01*
X004801Y026030D01*
X004694Y026137D01*
X004694Y026457D01*
X004477Y026457D02*
X004477Y026137D01*
X004370Y026030D01*
X004263Y026137D01*
X004156Y026030D01*
X004050Y026137D01*
X004050Y026457D01*
X003832Y026457D02*
X003832Y026137D01*
X003725Y026030D01*
X003619Y026137D01*
X003512Y026030D01*
X003405Y026137D01*
X003405Y026457D01*
X005121Y026457D02*
X005121Y026137D01*
X009099Y026671D02*
X009205Y026671D01*
D17*
X008530Y020172D02*
X008530Y020110D01*
X008530Y019987D02*
X008468Y019987D01*
X008530Y019987D02*
X008530Y019740D01*
X008591Y019740D02*
X008468Y019740D01*
X008714Y019740D02*
X008714Y019987D01*
X008899Y019987D01*
X008960Y019925D01*
X008960Y019740D01*
X009082Y019740D02*
X009267Y019740D01*
X009329Y019802D01*
X009267Y019863D01*
X009144Y019863D01*
X009082Y019925D01*
X009144Y019987D01*
X009329Y019987D01*
X009450Y019987D02*
X009574Y019987D01*
X009512Y020049D02*
X009512Y019802D01*
X009574Y019740D01*
X009696Y019802D02*
X009757Y019863D01*
X009943Y019863D01*
X009943Y019925D02*
X009943Y019740D01*
X009757Y019740D01*
X009696Y019802D01*
X009757Y019987D02*
X009881Y019987D01*
X009943Y019925D01*
X010064Y019740D02*
X010187Y019740D01*
X010126Y019740D02*
X010126Y020110D01*
X010064Y020110D01*
X010310Y020110D02*
X010371Y020110D01*
X010371Y019740D01*
X010310Y019740D02*
X010433Y019740D01*
X010480Y019360D02*
X010480Y018990D01*
X010666Y018990D01*
X010727Y019052D01*
X010727Y019175D01*
X010666Y019237D01*
X010480Y019237D01*
X010849Y019052D02*
X010910Y019113D01*
X011096Y019113D01*
X011096Y019175D02*
X011096Y018990D01*
X010910Y018990D01*
X010849Y019052D01*
X010910Y019237D02*
X011034Y019237D01*
X011096Y019175D01*
X011217Y019175D02*
X011217Y019052D01*
X011279Y018990D01*
X011464Y018990D01*
X011585Y018990D02*
X011585Y019360D01*
X011464Y019237D02*
X011279Y019237D01*
X011217Y019175D01*
X011585Y019113D02*
X011770Y019237D01*
X011892Y019175D02*
X011892Y019422D01*
X012028Y019740D02*
X012028Y020110D01*
X012214Y020110D01*
X012275Y020049D01*
X012275Y019925D01*
X012214Y019863D01*
X012028Y019863D01*
X012152Y019863D02*
X012275Y019740D01*
X012397Y019802D02*
X012458Y019740D01*
X012582Y019740D01*
X012644Y019802D01*
X012644Y019863D01*
X012582Y019925D01*
X012397Y019925D01*
X012397Y019802D01*
X012397Y019925D02*
X012520Y020049D01*
X012644Y020110D01*
X011907Y019925D02*
X011660Y019925D01*
X011539Y019863D02*
X011539Y019802D01*
X011477Y019740D01*
X011353Y019740D01*
X011292Y019802D01*
X011170Y019740D02*
X011047Y019863D01*
X011109Y019863D02*
X010923Y019863D01*
X010923Y019740D02*
X010923Y020110D01*
X011109Y020110D01*
X011170Y020049D01*
X011170Y019925D01*
X011109Y019863D01*
X011292Y020049D02*
X011353Y020110D01*
X011477Y020110D01*
X011539Y020049D01*
X011539Y019987D01*
X011477Y019925D01*
X011539Y019863D01*
X011477Y019925D02*
X011415Y019925D01*
X011585Y019113D02*
X011770Y018990D01*
X011892Y018990D02*
X011892Y019052D01*
X009991Y018990D02*
X009991Y019175D01*
X009929Y019237D01*
X009744Y019237D01*
X009744Y018990D01*
X009622Y019052D02*
X009622Y019175D01*
X009561Y019237D01*
X009437Y019237D01*
X009375Y019175D01*
X009375Y019052D01*
X009437Y018990D01*
X009561Y018990D01*
X009622Y019052D01*
X014890Y003430D02*
X015083Y003430D01*
X014987Y003430D02*
X014987Y003140D01*
X015185Y003140D02*
X015378Y003430D01*
X015185Y003430D02*
X015378Y003140D01*
X015890Y003140D02*
X015890Y003430D01*
X016035Y003430D01*
X016083Y003382D01*
X016083Y003285D01*
X016035Y003237D01*
X015890Y003237D01*
X015987Y003237D02*
X016083Y003140D01*
X016185Y003140D02*
X016378Y003430D01*
X016185Y003430D02*
X016378Y003140D01*
X017640Y003188D02*
X017688Y003140D01*
X017833Y003140D01*
X017833Y003092D02*
X017833Y003333D01*
X017688Y003333D01*
X017640Y003285D01*
X017640Y003188D01*
X017737Y003043D02*
X017785Y003043D01*
X017833Y003092D01*
X017935Y003140D02*
X017935Y003333D01*
X018080Y003333D01*
X018128Y003285D01*
X018128Y003140D01*
X018229Y003188D02*
X018229Y003285D01*
X018278Y003333D01*
X018423Y003333D01*
X018423Y003430D02*
X018423Y003140D01*
X018278Y003140D01*
X018229Y003188D01*
D18*
X018495Y017915D02*
X018495Y017989D01*
X018495Y018063D02*
X018458Y018063D01*
X018458Y018210D01*
X018422Y018210D02*
X018495Y018210D01*
X018532Y018173D01*
X018532Y018100D01*
X018495Y018063D01*
X018385Y018100D02*
X018385Y018173D01*
X018422Y018210D01*
X018532Y018284D02*
X018532Y018321D01*
X018458Y018394D01*
X018385Y018394D02*
X018532Y018394D01*
X018495Y018468D02*
X018385Y018468D01*
X018385Y018578D01*
X018422Y018615D01*
X018458Y018578D01*
X018458Y018468D01*
X018495Y018468D02*
X018532Y018505D01*
X018532Y018578D01*
X018568Y017952D02*
X018385Y017952D01*
X018568Y017952D02*
X018605Y017915D01*
M02*
